<?xml version="1.0" encoding="UTF-8"?> <!-- Generator: Adobe Illustrator 17.1.0, SVG Export Plug-In . SVG Version: 6.00 Build 0) --> <svg xmlns="http://www.w3.org/2000/svg" xmlns:xlink="http://www.w3.org/1999/xlink" id="Layer_1" x="0px" y="0px" viewBox="0 0 147 147.2" xml:space="preserve"> <g> <path fill="#DE5541" d="M9,41.5c2.3,1,4.9,2.1,6.7,2.9l2.3,1l0.2,0.1c0.2-0.4,0.4-1,0.7-1.1c0.2-0.1,0.6,0,1.1,0.2 c0.4,0.2,0.9,0.4,0.9,0.4c0.4,0.2,0.3,0.7,0.2,0.9c-0.1,0.3-0.5,0.6-0.8,0.5l-0.8-0.3l-2,4.6c0.2,0.1,0.5,0.3,0.7,0.4 c0.3,0.1,0.3,0.5,0.2,0.8c-0.1,0.3-0.4,0.6-0.8,0.5c-0.1,0-0.6-0.2-0.9-0.3c-0.5-0.2-0.8-0.4-0.9-0.7c-0.1-0.3,0.1-0.8,0.3-1.3 c-2.3-1.5-6.7-3.8-9-4.8l-0.2-0.1c-0.5-0.2-0.9-0.7-0.6-1.3c0.3-0.6,0.9-2.2,1.1-2.3C8.1,41.2,8.3,41.2,9,41.5z M17,48.5l0.6-1.5 c-1.2-0.6-8.5-3.7-9.1-4l0,0.1c-0.1,0.2-0.2,0.4-0.3,0.7C11.6,45.3,15.1,47.4,17,48.5z"></path> <path fill="#DE5541" d="M18,32.6c0.3,0.2,0.8,0.5,1.1,0.7c3.5,2.3,5.7,4.4,4.5,6.2c-0.6,0.9-1.5,1.6-3.6,0.8 c-1-0.4-2.3-1.1-3.3-1.8c-0.4-0.3-0.8-0.5-1.1-0.8l-0.8-0.6c-1.4-0.9-3.6-3-2.2-5.1c0.8-1.2,2.8-1,4.2-0.2 C17.2,32.1,17.6,32.4,18,32.6z M18.4,34.9c-1.1-0.7-2.5-1.6-3.1-1.9c-0.4-0.2-1.3-0.4-1.5,0c-0.3,0.5,0.1,1.5,3.8,3.8 c1.2,0.8,4.4,2.8,4.9,1.9C22.8,38.1,20.5,36.3,18.4,34.9z"></path> <path fill="#DE5541" d="M23.7,24.1c0.1,0.3-0.1,0.6-0.3,0.9c0,0-0.4,0.3-0.6,0.3c-0.1,0-0.3-0.2-0.5-0.3c-0.5-0.4-1.4-1.1-2-0.5 c-0.5,0.5,0.4,1.7,1,2.3c0.1,0.1,0.4,0.3,0.6,0.6c0.4,0.4,0.9,0.9,1.4,1.3c0.7,0.7,1.4,1.2,1.5,1.3c0.7,0.6,2.4,2.1,3.1,1.3 c0.4-0.4,0.2-1.2-0.4-1.9c-0.1-0.2-0.4-0.4-0.6-0.5c-0.3-0.3-0.1-0.7,0.1-1c0.5-0.6,0.9-0.3,1.3,0.1c0.4,0.3,0.8,0.7,1,1.1 c0.6,1.1,0.4,2.3-0.3,3.2c-1.2,1.3-2.7,1-4.1,0c-1-0.7-2.6-2.2-3.4-2.9c-0.7-0.6-1.6-1.5-2.2-2.4c-1.1-1.5-0.8-2.7,0-3.6 c0.8-0.9,1.9-0.9,2.8-0.5c0.6,0.2,0.8,0.4,1.3,0.9C23.6,24,23.7,24.1,23.7,24.1z"></path> <path fill="#DE5541" d="M25.1,17.8c0.5-0.4,3.3-2.7,3.5-2.7c0.2,0,0.6,0.1,0.8,0.3c0.1,0.1,0.2,0.8,0.1,0.9c-0.3,0.2-0.5,0.5-1,0.9 c1.5,1.9,3.4,4.1,4.6,5.6c0.5,0.6,1.4,1.7,1.6,1.9l0.7,0.9c0.1,0.1,0.2,0.7-0.3,1.1c-0.6,0.5-0.9,0.3-1.2-0.1 c-0.3-0.3-0.4-0.5-0.4-0.6c-0.8-1-5.4-6.6-6.3-7.7l-0.4,0.3c-0.3,0.2-0.6,0.5-0.6,0.5c-0.4,0.2-0.7,0-0.9-0.4l0-0.1 C24.9,18.5,24.9,18.1,25.1,17.8z"></path> <path fill="#DE5541" d="M44.2,19.2c0.3,0.5,0.1,1-0.4,1.3c-0.3,0.2-0.7,0-0.8-0.2l-2.3-2.9c-0.4,0.3-1,0.6-1.4,0.9l0.3,0.6 c0.4,1,1.1,2.4,1.2,2.9c-0.1,0.2-0.5,0.8-0.7,0.9c-0.3,0.2-0.6,0.1-0.8-0.3c-0.1-0.1-0.1-0.2-0.2-0.4L38,19.8 c-0.9-2.3-1.9-4.7-2.8-7.2l-0.1-0.2c-0.3-0.8-0.6-1.7,0.4-2.3c0.8-0.5,1.6,0.4,2,1c1.5,1.8,2.9,3.5,4.3,5.3L44,19 C44.1,19.1,44.1,19.1,44.2,19.2z M37.7,14.6l0.9,2.2c0.3-0.2,0.7-0.4,1-0.6l-2.9-3.8C37,12.9,37.5,14.1,37.7,14.6z"></path> <path fill="#DE5541" d="M48.7,10c0.3,0.1,0.5,0.2,0.7,0.3c0.7,0.4,1.2,1.3,1.4,1.9c1,2.5,1.6,4.2-0.5,5.2l-2,0.9 c-0.1,0-0.2,0.1-0.4,0c-0.3-0.1-0.6-0.4-0.7-0.6l-4.1-10c-0.3-1.3,1-1.9,1.8-2.3c1.8-0.8,2.6,0.4,3.3,1.9 C48.7,8.5,48.8,9.4,48.7,10z M46.3,10.7c0.6-0.2,0.9-0.4,0.9-0.6c0.2-0.5-0.2-1.5-0.5-2.2l-0.2-0.4c-0.3-0.7-0.7-1.1-1.3-0.8 c-0.2,0.1-0.5,0.2-0.5,0.2C45.3,8.1,45.8,9.5,46.3,10.7z M48.7,16.5l0.9-0.4c0.7-0.3,0.7-1.3,0.3-2.1c-0.1-0.2-0.2-0.4-0.2-0.6 l-0.1-0.3c-0.5-1.2-1-2-2.1-1.5l-0.7,0.3L48.7,16.5z"></path> <path fill="#DE5541" d="M54.5,2.4c0.1,0.2,0.3,1,0.5,1.5c0.2,0.6,0.3,1.3,0.5,2L55.7,7c0.1-1.3,0.2-3.1,0.2-4.1 c0-0.4,0.2-1,0.3-1.1c0.1-0.1,0.3-0.1,0.5-0.2c0.3-0.1,0.7,0,0.8,0.4c0.1,0.2,0.1,0.8,0,1c-0.1,0.4-0.2,1.2-0.3,2.3 c-0.2,1.2-0.3,2.7-0.4,3.4c0.2,0.2,0.4,0.5,0.5,0.7c0.9,1,1.4,1.5,1.9,2.1l1.1,1.3c0.1,0.1,0.4,0.5,0.5,0.8 c0.1,0.5-0.3,0.8-0.6,0.9c-0.6,0.2-0.9-0.1-1.3-0.6l-0.6-0.8c-0.5-0.7-1.3-1.7-1.8-2.3c0.3,1.1,0.7,2.9,0.9,3.5 c0.2,0.9-0.1,1.1-0.5,1.2c-0.2,0-0.4,0.1-0.6,0.1c-0.2,0-0.4-0.4-0.5-0.8c-0.5-2.4-2.1-9-2.5-10.5c-0.1-0.5-0.3-1-0.2-1.3 c0.2-0.3,0.3-0.4,0.6-0.5c0.1,0,0.3-0.1,0.5,0C54.3,2.2,54.4,2.3,54.5,2.4z"></path> <path fill="#DE5541" d="M69.8,11.9c0.1,0.6-0.3,0.9-1,1c-0.4,0-0.6-0.3-0.6-0.6l-0.8-3.6c-0.5,0.1-1.1,0.1-1.6,0.2l0,0.7 c0,1.1-0.1,2.7-0.2,3.1c-0.2,0.1-0.8,0.5-1,0.5c-0.3,0-0.6-0.1-0.6-0.6c0-0.1,0-0.2,0-0.4l0.2-2.5c0.2-2.5,0.3-5.1,0.5-7.7l0-0.2 c0.1-0.8,0.2-1.8,1.3-1.9c1-0.1,1.2,1,1.4,1.8c0.6,2.3,1.1,4.4,1.7,6.7l0.8,3.2C69.7,11.7,69.8,11.8,69.8,11.9z M65.9,5l-0.1,2.4 c0.4,0,0.8-0.1,1.2-0.1l-1-4.7C65.9,3.1,65.9,4.4,65.9,5z"></path> <path fill="#DE5541" d="M83.6,0.4c0.8,0.1,2.8,0.4,3,0.6c0.1,0.1,0.3,0.4,0.3,0.7c0,0.1-0.4,0.7-0.6,0.7c-0.1,0-0.3,0-0.7-0.1 l-1.4-0.2c-0.2,1.2-0.3,1.6-0.4,2.1l-0.3,1.5c0.5,0.1,1,0.1,1.1,0.2c1,0.2,1.5,0.7,1.9,1.3c0.4,0.7,0.3,1.8,0.2,2.4 c-0.4,2.7-0.9,4.5-3.2,4.1c-0.3,0-0.7-0.1-1.1-0.1c-0.6-0.1-1.1-0.2-1.4-0.4c-0.3-0.2-0.3-0.6-0.2-0.9l1.9-11.3 C82.8,0.6,83,0.3,83.6,0.4z M83.3,7.1c-0.2,1.2-0.4,2.6-0.7,4.1l-0.1,0.3l0,0.4l1,0.2c0.8,0.1,1.2-0.6,1.4-1.5 c0-0.2,0.1-0.4,0.1-0.6l0-0.3c0.2-1.3,0.2-2.2-1-2.4L83.3,7.1z"></path> <path fill="#DE5541" d="M97.4,3.7c0.3,0.1,0.5,0.3,0.4,0.8c0,0.1,0,0.3-0.1,0.5c0,0.1-0.1,0.2-0.1,0.3c-0.2,0.6-2.7,8-3,8.6 c-0.5,1-1.4,2.2-3.3,1.7c-0.4-0.1-2-0.8-1.2-3.2c0.2-0.7,0.5-0.9,1.1-0.7c0.5,0.2,0.7,0.4,0.2,1.8c-0.1,0.4,0.1,0.7,0.4,0.8 c0.6,0.2,1-0.5,1.2-1.1c0,0,0.3-0.7,0.6-1.7c-0.3,0-0.7-0.1-1.1-0.2c-0.3-0.1-0.7-0.3-0.9-0.5c-1-1-0.1-3.7,0.4-5.3 c0.1-0.3,0.2-0.6,0.3-0.9c0.1-0.3,0.2-0.7,0.4-1.2c0.2-0.4,0.6-0.7,1.2-0.6c0.4,0.1,0.5,0.6,0.3,1c-0.5,1.7-1.1,3.5-1.4,5.3 c0,0.2,0,0.9,0.6,1c0.2,0,0.4,0.1,0.8,0l1.7-5.1c0.1-0.4,0.3-0.8,0.7-1C97,3.6,97.3,3.6,97.4,3.7z"></path> <path fill="#DE5541" d="M105.6,7c0.9,0.4,1.6,1,1.7,2c0.1,0.6-0.3,1.5-0.6,2c-0.6,1.2-1.4,2.7-1.9,3.1c-0.9,1-1.9,1.1-2.8,0.6 c-0.3-0.2-0.8-0.4-0.9-0.5c0,0-0.5,0.9-0.8,1.7l-0.3,0.5c-0.3,0.6-0.5,1.1-0.5,1.1c0,0.1-0.7,0.8-1.3,0.5c-0.5-0.2-0.6-0.4-0.4-0.9 l5-10C103.6,6.1,104.8,6.6,105.6,7z M102.5,11.6c-0.3,0.5-0.4,0.9-0.7,1.4l0.7,0.3c0.7,0.3,1.4-0.3,1.8-1.1 c0.1-0.2,0.4-0.7,0.6-1.2l0.3-0.6c0.5-1,0.6-1.8-0.3-2.3c-0.2-0.1-0.5-0.2-0.5-0.2C103.6,9.4,103,10.6,102.5,11.6z"></path> <path fill="#DE5541" d="M107.9,21.2c-0.4,0.7-0.9,1.3-1.4,1.2c-0.1,0-0.4,0-0.6-0.2c-0.2-0.2-0.4-0.4-0.4-0.9 c0.6-0.7,2.2-3.1,3.6-5.3c1.2-1.7,2.2-3.4,2.6-3.9c0.3-0.4,0.6-0.7,0.9-0.9c0.5,0,1.1,0.3,1.8,0.8l0.2,0.1c0.4,0.2,0.9,0.6,1.1,0.9 c0.1,0.3,0.1,0.6-0.1,0.9c-0.1,0.2-0.3,0.3-0.5,0.3c-0.3,0-0.6-0.2-1-0.5l-1-0.6C112.1,14.9,107.9,21.1,107.9,21.2z"></path> <path fill="#DE5541" d="M119.4,19.7c-0.7,0.8-1.1,1.2-1.3,1.5l-0.3,0.3c-0.1,0.2-0.3,0.3-0.3,0.3l1,0.9c0.7,0.6,0.6,0.8,0.2,1.3 c-0.3,0.4-0.8,0.3-1.1,0l-0.8-0.7c-0.2-0.2-0.3-0.2-0.3-0.2l-0.6,0.7c-0.5,0.6-1.1,1.2-1.5,1.7l-0.7,0.8l0.1,0.1 c0.3,0.3,0.7,0.5,1.1,0.9c0.5,0.4,0.7,0.8,0.3,1.2c-0.3,0.3-0.7,0.3-0.9,0.1c-0.5-0.3-1.3-1-1.9-1.5c-0.7-0.6-0.7-0.9-0.2-1.6 l0.6-0.7c1.1-1.2,3-3.3,4.3-4.8c0.8-0.9,1.5-1.7,1.6-1.7c0.5-0.5,1-1.1,1.6-1.3c0.3-0.1,0.7,0.2,1.2,0.6c0.1,0.1,0.3,0.3,0.4,0.4 l0.4,0.4c0.7,0.6,1,0.9,0.5,1.5c-0.4,0.5-0.6,0.5-1.5-0.3l-0.1-0.1l-0.9-0.7C120.3,18.8,119.5,19.7,119.4,19.7z"></path> <path fill="#DE5541" d="M128.9,24.9c0.6,0.7,1,1.5,0.7,2.5c-0.2,0.6-0.9,1.2-1.4,1.6c-1,0.9-2.4,1.9-2.9,2.1 c-1.2,0.5-2.1,0.3-2.8-0.5c-0.2-0.3-0.6-0.7-0.6-0.8c0,0-0.8,0.7-1.4,1.2l-0.5,0.4c-0.5,0.4-0.9,0.8-0.9,0.8 c-0.1,0.1-0.9,0.4-1.4-0.1c-0.3-0.4-0.4-0.7-0.1-1l8.6-7.3C127.3,23.2,128.3,24.2,128.9,24.9z M124.1,27.9c-0.5,0.4-0.7,0.6-1.2,1 l0.5,0.6c0.5,0.6,1.4,0.2,2.1-0.4c0.2-0.1,0.6-0.5,1-0.8l0.5-0.4c0.9-0.8,1.3-1.4,0.6-2.2c-0.1-0.2-0.3-0.4-0.4-0.4 C126,26.3,125,27.1,124.1,27.9z"></path> <path fill="#DE5541" d="M132.7,38.5c-0.3,0.2-0.8,0.5-1.1,0.7c-3.6,2.2-6.4,3.3-7.5,1.6c-0.6-1-0.8-2,0.8-3.6 c0.8-0.7,1.9-1.6,3-2.3c0.4-0.2,0.8-0.5,1.2-0.7l0.9-0.5c1.4-0.9,4.2-2,5.6,0.1c0.8,1.2-0.3,3-1.6,3.9 C133.5,37.9,133.1,38.2,132.7,38.5z M130.5,37.9c1.1-0.7,2.5-1.6,3-2.1c0.4-0.3,0.9-1,0.7-1.4c-0.3-0.5-1.4-0.5-5.1,1.8 c-1.3,0.8-4.3,2.8-3.8,3.7C125.7,40.6,128.3,39.2,130.5,37.9z"></path> <path fill="#DE5541" d="M135.7,47.1c-0.1,0.3-0.2,0.5-0.3,0.8c-0.4,0.7-1.3,1.2-1.9,1.5c-2.5,1.1-4.2,1.7-5.2-0.5l-0.9-2 c0-0.1-0.1-0.2,0-0.4c0.1-0.3,0.4-0.6,0.6-0.7l9.9-4.2c1.3-0.3,1.9,0.9,2.3,1.8c0.8,1.8-0.4,2.6-1.9,3.3 C137.2,47.1,136.3,47.2,135.7,47.1z M129.2,47.1l0.4,0.9c0.3,0.7,1.3,0.6,2.1,0.3c0.2-0.1,0.4-0.2,0.6-0.2l0.3-0.1 c1.2-0.5,2-1,1.5-2.1l-0.3-0.7L129.2,47.1z M135,44.7c0.2,0.6,0.4,0.9,0.6,0.9c0.5,0.2,1.5-0.3,2.2-0.5l0.4-0.2 c0.7-0.3,1.1-0.7,0.8-1.3c-0.1-0.2-0.2-0.5-0.2-0.5C137.5,43.6,136.2,44.2,135,44.7z"></path> <path fill="#DE5541" d="M23.1,105.4c-0.5,0.3-1,0.5-1.4-0.2c-0.3-0.6-0.7-1.1,0-1.9c0.1,0,0.5-0.3,0.9-0.6c0.8-0.5,2-1.3,1.7-1.8 c-0.4-0.8-1.4-0.5-2.3,0c-1.2,0.7-2.1,2.4-2.8,3.9c-0.9,1.9-2,4-4,5.1c-2.6,1.5-5.4,2-6.9-0.7c-1.1-1.9,0.4-4.1,2.2-5.2 c0.7-0.4,1.6-0.5,2.1,0.4c0.4,0.7,0.3,1.5-0.6,2c-0.6,0.4-2.2,1.3-1.8,2c0.5,0.9,2,0.1,2.8-0.3c1.7-0.9,2.5-2.6,3.3-4.2 c0.9-1.9,1.9-4,4.2-5.3c2.2-1.2,4.4-0.6,5.4,1.1C27.3,102.4,24.8,104.4,23.1,105.4z"></path> <path fill="#DE5541" d="M29.7,116.7c-0.4,0.4-1.1,1-1.5,1.3c-4.7,4.2-8.6,6.5-10.7,4.2c-1.1-1.3-1.7-2.7,0.3-5.4 c1-1.2,2.5-2.8,3.9-4.1c0.5-0.5,1.1-0.9,1.6-1.3l1.1-1c1.8-1.6,5.8-4.1,8.2-1.3c1.4,1.6,0.3,4.4-1.4,6.1 C30.7,115.7,30.2,116.2,29.7,116.7z M26.2,116.4c1.5-1.3,3.3-3,4-3.8c0.5-0.5,1.1-1.7,0.7-2.2c-0.6-0.7-2.1-0.3-7,4 c-1.7,1.5-5.7,5.3-4.8,6.4C19.8,121.6,23.3,119,26.2,116.4z"></path> <path fill="#DE5541" d="M38.9,115.6c1,0.7,0.3,1.7-0.1,2.3l-7.8,10.8c-0.5,0.7-1,2.2-0.2,2.8c1.2,0.9,3.4-1.7,4.9-3.8 c0.8-1.1,1.5-2.1,2.2-3c0.7-0.9,1.3-1.8,1.9-2.7c0.5-0.7,1.3-1.8,1.8-2.6c1-0.8,1.9-0.3,2.4,0.1c0.2,0.1,0.4,0.4,0.2,1.1 c-1.2,1.7-8.2,10.9-9,11.6c-2.9,2.7-4.6,2-6,1c-1.6-1.2-1.5-2.7-1.1-4.1c0.3-1.2,3.6-5.8,6.6-10l2.2-3.2l0.2-0.2 C37.8,115.3,38.4,115.2,38.9,115.6z"></path> <path fill="#DE5541" d="M43.8,138.4l0.5,0.2l1.2,0.5c0.6,0.3,1.1,0.5,1.4,0.8c0.1,0.1,0.2,0.5,0.1,0.9c-0.2,0.5-0.4,0.8-1,0.9 c-0.5,0.1-1.4-0.4-2.3-0.8c-1.2-0.6-2.1-1-2.5-1.5c-0.1-0.5,0.1-1.1,0.4-1.8c0.5-0.9,1.7-3.5,3-6.4c1.6-3.5,3.3-7.5,3.8-8.8 c0.6-0.4,1.1-0.4,1.4-0.3c0.4,0.2,0.6,0.5,0.7,0.7c0.3,0.6-0.1,1.6-0.6,2.6C49,127.1,45,135.8,43.8,138.4z"></path> <path fill="#DE5541" d="M65.6,127.4c0.1,0.4-0.1,1.5-0.2,2.4c-0.1,1-0.3,2-0.4,3l-0.3,1.7c0.9-1.8,1.9-4.2,2.5-5.6 c0.2-0.5,0.8-1.3,1-1.4c0.1-0.1,0.4,0,0.7,0c0.5,0.1,1,0.3,0.9,1c0,0.4-0.3,1.2-0.5,1.4c-0.3,0.5-0.9,1.7-1.6,3 c-0.9,1.7-1.9,3.6-2.4,4.5c0.1,0.4,0.2,0.8,0.4,1.2c0.7,1.8,1.1,2.9,1.4,4l0.8,2.5c0.1,0.2,0.3,0.8,0.2,1.4c-0.1,0.7-0.8,1-1.3,0.9 c-0.9-0.1-1.1-0.7-1.4-1.6l-0.4-1.5c-0.3-1.3-0.9-3-1.2-4.3c-0.2,1.7-0.6,4.4-0.7,5.3c-0.2,1.4-0.7,1.4-1.4,1.3 c-0.3,0-0.6-0.1-0.8-0.2c-0.3-0.1-0.3-0.8-0.2-1.4c0.6-3.7,2-13.7,2.3-16.1c0.1-0.7,0.2-1.6,0.5-1.8c0.4-0.3,0.6-0.4,1-0.4 c0.2,0,0.5,0.1,0.7,0.2C65.5,127,65.6,127.2,65.6,127.4z"></path> <path fill="#DE5541" d="M79.3,127.5c0.3,0.1,0.6,0.5,0.7,0.9c0,0.2-0.3,1.1-0.7,1.1c-0.1,0-0.3,0-0.8,0.1c-0.1,0-0.3,0-0.4,0 l0.2,3.2c0.2,2.6,0.3,5.3,0.4,7.4c0.1,1.3,0.1,2.9,0.2,3.6l0.1,0.9l1-0.1c0.5,0.2,0.8,0.2,0.9,0.7c0,0.7,0,1.4-0.6,1.5 c-0.1,0-0.5,0.1-0.9,0.1c-0.9,0.1-2.3,0.1-3.2,0.1c-0.3,0-0.7,0-0.8,0c-0.4,0-0.8-1-0.9-1.2c-0.1-1,0.9-0.9,1.8-1l-0.9-15.1l-0.2,0 c-1,0.1-1.7,0-1.7-1.1c0-0.5,0.4-0.9,0.9-1.1C75.5,127.5,79,127.3,79.3,127.5z"></path> <path fill="#DE5541" d="M83.5,126.7c1-0.2,6.1-1.5,6.4-1.4c0.3,0.1,0.8,0.6,0.9,0.9c0.1,0.2-0.2,1.2-0.5,1.3 c-0.5,0.1-1,0.3-1.9,0.5c0.9,3.5,1.9,7.7,2.5,10.6c0.3,1.1,0.8,3.2,0.9,3.6l0.4,1.7c0,0.1-0.1,1.1-1.1,1.4 c-1.1,0.3-1.4-0.2-1.6-0.9c-0.2-0.7-0.2-0.9-0.2-1.1c-0.4-1.8-3-12.5-3.5-14.6l-0.7,0.2c-0.5,0.1-1,0.3-1.2,0.3 c-0.6,0-0.8-0.5-1-1.1l0-0.1C82.8,127.4,83.1,127,83.5,126.7z"></path> <path fill="#DE5541" d="M102.6,125.7c-0.1,0.4-0.5,0.8-0.9,1c-0.1,0-0.7,0.2-1,0c-0.1-0.1-0.3-0.4-0.5-0.7 c-0.5-0.8-1.3-2.3-2.4-1.8c-0.9,0.4-0.5,2.6,0.1,3.8c0.1,0.3,0.3,0.7,0.5,1.1c0.3,0.7,0.7,1.7,1.2,2.7c0.6,1.3,1.3,2.5,1.3,2.7 c0.6,1.2,2.2,4.3,3.6,3.7c0.7-0.3,1-1.6,0.5-2.8c-0.1-0.3-0.3-0.7-0.5-1c-0.2-0.6,0.3-1.1,0.7-1.3c1-0.5,1.4,0.1,1.7,0.9 c0.3,0.7,0.7,1.5,0.7,2.2c0.1,1.9-0.7,3.4-2.2,4.1c-2.4,1.1-4.3-0.3-5.6-2.4c-0.9-1.6-2.4-4.5-3.1-6c-0.6-1.2-1.3-3-1.7-4.6 c-0.6-2.7,0.5-4.2,2-4.9c1.7-0.8,3.1-0.2,4.1,1c0.6,0.7,0.8,1,1.3,2C102.5,125.4,102.6,125.5,102.6,125.7z"></path> <path fill="#DE5541" d="M111.3,125.2c0.2-0.2,0.5-0.4,0.8-0.7c0.4-0.3,1-0.7,1.3-0.9l-5.4-7.3c-0.3-0.4-0.2-1.1,0.3-1.5 c0.3-0.2,0.7-0.3,1.5-0.2c0.6,0.8,1.5,1.9,2.2,2.9c3.6,4.7,8.2,11.1,8.8,11.9c-0.1,0.6-0.5,1.1-0.9,1.4c-0.3,0.3-0.9,0.5-1.2,0 l-2.1-2.7c-0.7-0.9-1.5-1.9-2-2.7l-2.1,1.6l2.5,3.3c0.9,1.2,1.9,2.5,1.3,3.3l-0.4,0.3c-0.5,0.4-1.1,0.4-1.6-0.3 c-1.1-1.4-2-2.7-2.8-3.8l-1.8-2.4c-2.2-2.9-3.5-4.7-4.4-5.7c-1-1.3-1.2-1.7-1.4-1.9c-0.5-0.8,0-1.2,0.4-1.5c0.4-0.3,1.2-0.4,1.6,0 C108.3,121.3,110,123.6,111.3,125.2z"></path> <path fill="#DE5541" d="M117.2,112.8c1.2,1.1,1.8,1.6,2.2,2l0.5,0.4l0.5,0.5l1.4-1.5c0.9-1,1.2-0.9,1.9-0.2c0.5,0.5,0.4,1.1,0,1.6 l-1.1,1.2c-0.3,0.3-0.3,0.4-0.2,0.5l1.1,1c0.8,0.8,1.8,1.6,2.5,2.3l1.2,1.1c0.5-0.5,0.9-1.2,1.4-1.7c0.7-0.7,1.1-1,1.8-0.4 c0.5,0.4,0.4,1,0.1,1.4c-0.5,0.7-1.4,1.9-2.2,2.7c-0.9,1-1.4,1.1-2.3,0.2l-1.1-1c-1.7-1.6-4.9-4.5-7.1-6.5 c-1.4-1.3-2.5-2.2-2.6-2.4c-0.7-0.7-1.7-1.5-2-2.5c-0.1-0.5,0.3-1.1,1-1.8c0.2-0.2,0.4-0.4,0.6-0.6l0.5-0.6c1-1.1,1.4-1.4,2.2-0.6 c0.7,0.7,0.7,0.9-0.4,2.2l-0.1,0.2l-1.1,1.3C115.7,111.5,117.1,112.7,117.2,112.8z"></path> <path fill="#DE5541" d="M119.7,102.8c0.3-0.3,0.6-0.4,2.4,0.1c3.2,0.9,8.6,2.3,12.2,3.2c-0.4-0.2-1.9-1-2.1-1.2c-2.1-1.2-5-2.7-7-4 l-2.1-1.2c-0.6-0.4-1.1-0.9-0.4-2.5c0.2-0.2,0.5-0.1,0.8,0c0.6,0.3,2.1,1.2,3.8,2.2c2.6,1.5,6.3,3.7,8.6,5c1.4,0.9,2.3,1.4,2.5,1.6 c0.5,0.4,0.5,1.7,0.1,2.4c-0.3,0.5-0.6,0.6-1.1,0.5l-10.6-2.6c0.7,0.4,2.5,1.4,2.8,1.6c3,1.8,6.4,3.7,6.4,3.7 c0.2,0.9,0.2,1.3-0.2,1.8c-0.5,0.8-2.4-0.3-4.8-1.8l-4.3-2.6c-3.2-1.9-6.2-3.7-6.9-4.1C119.2,104.5,119.2,103.7,119.7,102.8z"></path> <path fill="#DE5541" d="M93.3,93.3"></path> <path fill="#DE5541" d="M71.8,120.7"></path> <path fill="#DE5541" d="M15.9,89.3c-0.9,0-1.7-0.1-2.5-0.3c-2.9-0.7-5.2-2.7-5.8-4.3c-0.2-0.4-0.2-0.9,0-1.3c0.2-0.4,0.6-0.7,1-0.9 c0,0,0.1,0,0.1,0C7,82.1,5.4,81.3,4,80.2c-3.6-2.8-3.9-6.8-3.9-7c0-0.5,0.2-1,0.5-1.3C1,71.6,1.5,71.4,2,71.5c0,0,0.9,0.1,2.1,0.3 c-1-0.8-1.9-1.7-2.6-2.8C-1.5,64,0.5,58.5,3.1,55.4c0.4-0.4,0.9-0.6,1.5-0.6c0.6,0.1,1,0.4,1.3,0.9c0.4,0.8,4,8.1,14,7.6 c8.4-0.4,15.1-0.3,20,4.3c2.7,2.5,3.7,6.9,2.7,10.8c-1,3.5-3.5,6-7,6.8c-6.6,1.5-10.2-3-11.3-5.5c-0.3-0.8,0.1-1.8,0.9-2.1 c0.8-0.3,1.8,0.1,2.1,0.9c0.2,0.5,2.2,4.8,7.6,3.6c3.1-0.7,4.2-3.1,4.5-4.5c0.8-2.7,0-5.9-1.8-7.6C34,66.6,29,66.2,20,66.6 c-7.6,0.3-12.9-3.2-15.7-7.1c-1,1.9-1.8,4.8,0,7.7c1.1,1.8,2.8,3.2,7.4,4.4c0.7,0.2,1.3,0.9,1.2,1.6c0,0.8-0.6,1.4-1.3,1.6 C9,75.3,6,75.2,4,75c0.4,0.8,1,1.8,2.1,2.7c2.2,1.7,4.8,2.3,9.3,1.9c0.7-0.1,1.4,0.4,1.7,1.1c0.2,0.7,0,1.5-0.6,1.9 c-1.6,1-3,1.7-4.3,2.3c0.6,0.4,1.3,0.8,2.3,1c2.3,0.6,4.6-0.1,6.9-1.9c0.7-0.6,1.7-0.4,2.3,0.3c0.6,0.7,0.4,1.7-0.3,2.3 C20.5,88.6,18,89.3,15.9,89.3z"></path> <path fill="#DE5541" d="M131.1,89.9c-2,0-4.6-0.6-7.3-2.8c-0.7-0.6-0.8-1.6-0.3-2.3c0.6-0.7,1.6-0.8,2.3-0.3 c2.3,1.8,4.6,2.4,6.9,1.9c0.9-0.2,1.7-0.6,2.3-1c-1.3-0.5-2.8-1.2-4.3-2.3c-0.6-0.4-0.9-1.2-0.6-1.9c0.2-0.7,0.9-1.1,1.7-1.1 c4.5,0.3,7.1-0.2,9.3-1.9c1.1-0.8,1.7-1.8,2.1-2.7c-2.1,0.2-5.1,0.3-7.7-0.3c-0.7-0.2-1.3-0.8-1.3-1.6c0-0.8,0.5-1.4,1.2-1.6 c4.6-1.1,6.3-2.6,7.4-4.4c1.8-2.9,1-5.8,0-7.7c-2.8,3.9-8,7.5-15.7,7.1c-9.1-0.4-14,0-17.6,3.4c-1.8,1.7-2.5,4.8-1.8,7.6 c0.4,1.4,1.5,3.8,4.5,4.5c5.5,1.2,7.5-3.4,7.6-3.5c0.3-0.8,1.3-1.2,2.1-0.9c0.8,0.3,1.2,1.3,0.9,2.1c-1,2.5-4.7,7-11.3,5.5 c-3.4-0.8-6-3.2-7-6.8c-1.1-3.9,0-8.3,2.7-10.8c4.8-4.6,11.6-4.6,20-4.3c10,0.5,13.6-6.8,14-7.6c0.2-0.5,0.7-0.9,1.3-0.9 c0.6-0.1,1.1,0.1,1.5,0.6c2.7,3.2,4.7,8.6,1.6,13.5c-0.7,1.1-1.5,2.1-2.6,2.8c1.3-0.1,2.1-0.2,2.1-0.3c0.5-0.1,1,0.1,1.4,0.4 c0.4,0.3,0.6,0.8,0.5,1.3c0,0.2-0.3,4.2-3.9,7c-1.4,1.1-2.9,1.9-4.8,2.3c0,0,0.1,0,0.1,0c0.4,0.1,0.8,0.4,1,0.9 c0.2,0.4,0.2,0.9,0,1.3c-0.6,1.5-2.9,3.5-5.8,4.3C132.8,89.8,132,89.9,131.1,89.9z"></path> <path fill="#DE5541" d="M73.5,43c-2.3,0-13.9-0.3-13.9-5.4c0-4.8,9.7-5.3,13.9-5.3c4.2,0,13.9,0.5,13.9,5.3 C87.4,42.7,75.8,43,73.5,43z M62.8,37.6c0.5,0.8,4.3,2.1,10.6,2.1c6.3,0,10.1-1.4,10.6-2.1c-0.4-0.7-3.9-2.1-10.6-2.1 C66.7,35.5,63.2,36.8,62.8,37.6z"></path> <path fill="#DE5541" d="M121.1,81.6c-0.2,0-0.5-0.1-0.7-0.2c-0.8-0.4-1.1-1.4-0.8-2.2c2.4-5,1.2-13.2,0.1-17.2 c-5.7-20.7-24.7-35.2-46.2-35.2c-21.6,0-40.7,14.6-46.3,35.4C25.8,67.5,25,75,27.4,78.7c0.5,0.7,0.3,1.8-0.5,2.3 c-0.7,0.5-1.8,0.3-2.3-0.5c-3.8-5.7-1.4-16.1-0.6-19.1c6-22.3,26.3-37.8,49.4-37.8c23,0,43.3,15.5,49.4,37.6 c0.3,1.2,3.2,12.3-0.3,19.5C122.3,81.3,121.8,81.6,121.1,81.6z"></path> <path fill="#DE5541" d="M87.3,88.9c-2.4,0-3.7-1.3-4.6-2.3c-0.8-0.9-1.3-1.3-2.3-1.3c-1,0-1.5,0.4-2.3,1.3c-0.9,1-2.2,2.3-4.6,2.3 c-2.4,0-3.7-1.3-4.6-2.3c-0.8-0.9-1.3-1.3-2.3-1.3c-1,0-1.5,0.4-2.3,1.3c-0.9,1-2.2,2.3-4.6,2.3c-2.4,0-3.7-1.3-4.6-2.3 c-0.8-0.9-1.3-1.3-2.3-1.3c-0.9,0-1.6-0.7-1.6-1.6c0-0.9,0.7-1.6,1.6-1.6c2.4,0,3.7,1.3,4.6,2.3c0.8,0.9,1.3,1.3,2.3,1.3 c1,0,1.5-0.4,2.3-1.3c0.9-1,2.2-2.3,4.6-2.3c2.4,0,3.7,1.3,4.6,2.3c0.8,0.9,1.3,1.3,2.3,1.3c1,0,1.5-0.4,2.3-1.3 c0.9-1,2.2-2.3,4.6-2.3c2.4,0,3.7,1.3,4.6,2.3c0.8,0.9,1.3,1.3,2.3,1.3c1,0,1.5-0.4,2.3-1.3c0.9-1,2.2-2.3,4.6-2.3 c0.9,0,1.6,0.7,1.6,1.6c0,0.9-0.7,1.6-1.6,1.6c-1,0-1.5,0.4-2.3,1.3C91,87.6,89.7,88.9,87.3,88.9z"></path> <path fill="#DE5541" d="M73.8,103.9c-5.2,0-10.6-0.6-12.4-1c-4-0.9-6.6-3.4-7.5-5.5c-0.6-1.5-0.7-2.7-0.8-3.8 c0-0.4,0.1-0.9,0.4-1.2c0.3-0.3,0.7-0.5,1.2-0.5h19c0.9,0,1.6,0.7,1.6,1.6c0,0.9-0.7,1.6-1.6,1.6H56.6c0.1,0.3,0.2,0.6,0.3,1 c0.5,1.3,2.5,2.9,5.2,3.6c1.4,0.3,6.5,0.9,11.6,0.9c0.9,0,1.6,0.7,1.6,1.6C75.5,103.2,74.7,103.9,73.8,103.9z"></path> <path fill="#DE5541" d="M73.8,103.9c-0.9,0-1.6-0.7-1.6-1.6c0-0.9,0.7-1.6,1.6-1.6c5.2,0,10.2-0.6,11.6-0.9 c2.7-0.6,4.7-2.3,5.2-3.6c0.1-0.3,0.2-0.7,0.3-1H73.8c-0.9,0-1.6-0.7-1.6-1.6c0-0.9,0.7-1.6,1.6-1.6h19c0.4,0,0.9,0.2,1.2,0.5 c0.3,0.3,0.5,0.8,0.4,1.2c-0.1,1.1-0.2,2.3-0.8,3.8c-0.9,2.1-3.5,4.6-7.5,5.5C84.5,103.3,79.1,103.9,73.8,103.9z"></path> <path fill="#DE5541" d="M73.4,72.1c-8.7,0-15.1-0.2-18.9-0.4c-2.1-0.1-3.8-1.8-3.8-4v-1.3C50.7,56.1,61.3,47,73.5,47 c0.9,0,1.6,0.7,1.6,1.6s-0.7,1.6-1.6,1.6c-10.4,0-19.5,7.5-19.5,16.1v1.3c0,0.4,0.3,0.7,0.7,0.7c3.8,0.2,10.2,0.4,18.8,0.4 c0.9,0,1.6,0.7,1.6,1.6C75,71.4,74.3,72.1,73.4,72.1z"></path> <path fill="#DE5541" d="M73.6,72.1c-0.9,0-1.6-0.7-1.6-1.6c0-0.9,0.7-1.6,1.6-1.6c9.1,0,15.6-0.3,18.8-0.4c0.4,0,0.7-0.3,0.7-0.7 v-1.3c0-8.6-9.1-16.1-19.5-16.1c-0.9,0-1.6-0.7-1.6-1.6s0.7-1.6,1.6-1.6c12.1,0,22.8,9,22.8,19.4v1.3c0,2.1-1.6,3.8-3.8,4 C89.3,71.9,82.7,72.1,73.6,72.1z"></path> <g> <path fill="#DE5541" d="M82.8,61.6c-0.4,0-0.7-0.1-1-0.4L81.5,61c-0.7-0.6-0.8-1.6-0.2-2.3c0.6-0.7,1.6-0.8,2.3-0.2l0.3,0.2 c0.7,0.6,0.8,1.6,0.2,2.3C83.8,61.4,83.3,61.6,82.8,61.6z"></path> </g> <g> <path fill="#DE5541" d="M78.5,58H78c-0.9,0-1.6-0.7-1.6-1.6s0.7-1.6,1.6-1.6h0.5c0.9,0,1.6,0.7,1.6,1.6S79.4,58,78.5,58z"></path> </g> <g> <path fill="#DE5541" d="M73.9,61.4h-0.5c-0.9,0-1.6-0.7-1.6-1.6s0.7-1.6,1.6-1.6h0.5c0.9,0,1.6,0.7,1.6,1.6S74.8,61.4,73.9,61.4z"></path> </g> <g> <path fill="#DE5541" d="M69.3,58h-0.5c-0.9,0-1.6-0.7-1.6-1.6s0.7-1.6,1.6-1.6h0.5c0.9,0,1.6,0.7,1.6,1.6S70.2,58,69.3,58z"></path> </g> <g> <path fill="#DE5541" d="M64.5,61.6c-0.5,0-0.9-0.2-1.3-0.6c-0.6-0.7-0.5-1.7,0.2-2.3l0.3-0.2c0.7-0.6,1.7-0.5,2.3,0.2 c0.6,0.7,0.5,1.7-0.2,2.3l-0.3,0.2C65.2,61.5,64.9,61.6,64.5,61.6z"></path> </g> <g> <path fill="#DE5541" d="M73.9,121.2c-0.9,0-1.6-0.7-1.6-1.6v-10.7c0-0.9,0.7-1.6,1.6-1.6c0.9,0,1.6,0.7,1.6,1.6v10.7 C75.5,120.5,74.7,121.2,73.9,121.2z"></path> </g> <g> <path fill="#DE5541" d="M88.4,117.9c-0.6,0-1.1-0.3-1.4-0.8l-4.7-8.2c-0.4-0.8-0.2-1.8,0.6-2.2c0.8-0.4,1.8-0.2,2.2,0.6l4.7,8.2 c0.4,0.8,0.2,1.8-0.6,2.2C88.9,117.8,88.6,117.9,88.4,117.9z"></path> </g> <g> <path fill="#DE5541" d="M59.3,117.9c-0.3,0-0.6-0.1-0.8-0.2c-0.8-0.4-1-1.4-0.6-2.2l4.7-8.2c0.4-0.8,1.4-1,2.2-0.6 c0.8,0.4,1,1.4,0.6,2.2l-4.7,8.2C60.5,117.6,59.9,117.9,59.3,117.9z"></path> </g> <path fill="#DE5541" d="M73.6,79.3c-7,0-14-0.1-20.8-0.4c-0.9,0-1.6-0.8-1.6-1.7c0-0.9,0.8-1.6,1.7-1.6c13.5,0.6,28.1,0.6,41.5,0 c0.9,0,1.7,0.7,1.7,1.6c0,0.9-0.7,1.7-1.6,1.7C87.8,79.2,80.7,79.3,73.6,79.3z"></path> </g> </svg> 