<?xml version="1.0" encoding="UTF-8"?> <!-- Generator: Adobe Illustrator 17.1.0, SVG Export Plug-In . SVG Version: 6.00 Build 0) --> <svg xmlns="http://www.w3.org/2000/svg" xmlns:xlink="http://www.w3.org/1999/xlink" id="Layer_1" x="0px" y="0px" viewBox="0 0 735.3 116.3" xml:space="preserve"> <g> <g> <path fill="#E7DAD1" d="M13.5,55.7c0,5.3,0,11.1-0.1,15.3l0,5.2v0.4c1,0,2,0,2.5,0.4c0.5,0.4,0.7,1.2,0.7,2.3c0,1-0.1,2.2-0.1,2.2 c0,1-1.1,1.1-1.6,1.1c-0.8,0-1.5-0.4-1.5-1.2l-0.1-1.5H3.3c0,0.5-0.1,1.1-0.1,1.5c0,0.8-0.8,1.2-1.5,1.2c-0.4,0-1.6-0.2-1.6-1.2 c0,0.1-0.1-1.3-0.1-2.1c0-1,0.2-1.8,0.7-2.3c0.5-0.4,1.6-0.4,2.6-0.4c0.8-5.8,1.6-15.8,1.6-21v-0.5c0-1.3,0.7-2.3,2.2-2.3 c1.4,0,4.7,0,5.2,0.2C13.3,53.4,13.5,53.9,13.5,55.7z M7,76.6h2.8c0-2.9,0.1-17.5,0.1-20.4c-0.4,0-0.7,0-1.4,0 C8.5,63.8,7.7,71.9,7,76.6z"></path> <path fill="#E7DAD1" d="M33.5,62.4c0,0.8,0,1.9,0,2.7c0,8.7-1.1,14.8-5.3,14.8c-2.3,0-4.3-0.7-5.2-5.3c-0.4-2.1-0.7-5.1-0.7-7.8 c0-1,0-1.9,0-2.8V62c0-3.3,1-9.7,6.1-9.7c2.9,0,4.8,3.8,4.9,7.1C33.4,60.5,33.5,61.5,33.5,62.4z M29.7,65.7c0-2.7,0-6.1-0.3-7.5 c-0.1-0.9-0.6-2.5-1.3-2.5c-1.1,0-2,1.8-2,10.6c0,3,0.1,10.3,1.9,10.3C29.5,76.6,29.7,70.9,29.7,65.7z"></path> <path fill="#E7DAD1" d="M48.6,61.2c0,0-1.4-0.2-1.7-0.6c-0.1-0.4-0.1-0.8-0.1-1.3c-0.1-1.2-0.2-3.2-1.6-3.2 c-1.2,0-1.6,2.6-1.6,4.4c0,0.4,0,1,0,1.7c0,1.1,0,2.4,0,4v3.2c0,3,0.2,6.9,1.9,6.9c1,0,1.9-0.7,1.9-2.8c0-0.4,0-1,0-1.6 c0.2-0.9,1.3-1.3,1.9-1.3c1.6,0,1.7,1,1.7,2.2c0,1.1,0,2.2-0.4,3.2c-1,2.4-2.8,3.8-5.1,3.8c-3.7,0-5.2-2.4-5.5-6 c-0.2-2.6-0.3-7-0.3-9.3c0-2.1,0-4.2,0.5-6.7c0.8-4.1,2.9-5,5.4-5c3.7,0,5,4,5,7.2C50.5,60.7,49.5,61.2,48.6,61.2z"></path> <path fill="#E7DAD1" d="M57,52.7c1.4,0,8.3,0,8.8,0.3c0.3,0.2,0.9,1.2,0.9,1.6c0,0.4-0.7,1.6-1.2,1.6h-1.1c-0.4,0-0.9,0-1.5,0 c0,4.9,0,10.6,0,14.7c0,1.5,0,4.4,0,5.1v2.4c0,0.2-0.6,1.5-2,1.5c-1.6,0-1.8-0.8-1.8-1.9c0-0.9,0-1.2,0-1.5 c0-2.5,0.1-16.8,0.1-20.2h-0.8c-0.7,0-1.5,0-1.7,0c-0.7-0.2-1-1-1-1.8C55.9,53.7,56.3,53,57,52.7z"></path> <path fill="#E7DAD1" d="M83.5,77.7c0,1.5-1,1.9-2.4,2c-0.9,0-1.1-0.6-1.2-1.2L79,70.8c-0.9,0-1.9,0-2.8,0L76,72.3 c-0.3,2.1-0.7,5.5-1.1,6.5c-0.3,0.2-1.8,0.8-2.2,0.8c-0.7,0-1.2-0.4-1.2-1.5c0-0.3,0-0.6,0.1-1v0.1l0.7-4.1 c0.9-5.3,1.8-10.8,2.8-16.3c0,0,0-0.1,0-0.1c0.3-1.8,0.7-3.9,3.2-3.9c2,0,2.3,2.3,2.6,4c0.8,6.6,1.8,13.8,2.6,20.4v-0.1 C83.5,77.3,83.5,77.5,83.5,77.7z M78.7,68l-0.9-7.8l-0.1,1l-1,6.9H78.7z"></path> <path fill="#E7DAD1" d="M98.3,64.6c0.4,0.3,0.8,0.7,1.1,1.1c1.1,1.3,1.2,3.5,1.2,4.8c0,5.5-0.3,9.3-5,9.4h-4.2 c-1.2,0-1.7-1.4-1.7-2.1l0.1-21.9c0.6-2.9,3.3-3,5.1-3c4,0,4.6,2.9,4.6,6.3C99.4,61.7,98.9,63.4,98.3,64.6z M95.1,76.4 c1.4,0,1.8-1.7,1.8-3.4c0-0.4,0-0.9,0-1.3v-0.6c0-2.2-0.1-4.6-2.3-4.6h-1.2v9.9H95.1z M94.5,63.5c1.1-0.1,1.2-2,1.2-3.7v-1.2 c0-1.5-0.2-2.7-1.4-2.7c-0.3,0-0.7,0-0.7,0l-0.1,7.7H94.5z"></path> <path fill="#E7DAD1" d="M110.5,53.5c0.2,1.3,0,2.5,0,3.7c0,1.6-0.1,4-0.2,5.4c0.8-2.8,1.7-5.3,2.2-7.1c0.3-0.8,0.9-2.3,1.5-2.6 c0.4-0.1,0.8-0.2,1.1-0.2c1.2,0,1.5,0.6,1.5,1.7c0,0.7-0.3,1.7-0.4,2c-0.4,0.8-1,2.3-1.7,4l-2.3,5.4c1.4,3.1,2.5,5.2,3.7,7.7 l1.3,2.7c0.1,0.3,0.7,1.5,0.7,2.5c0,1.5-1.5,1.5-2,1.5c-1.1,0-1.6-1.3-2.2-2.4c-1.1-2.7-1.8-4.3-2.3-5.6l-1.1-3.3 c-0.1,2.5-0.2,7.1-0.2,8.6c0,2.3-0.7,2.5-1.8,2.5c-0.5,0-0.9-0.1-1.1-0.2c-0.5-0.2-0.7-1.2-0.7-2c0.2-6.1,0.4-17.3,0.4-21.2v-0.4 c0-0.8-0.1-2.3,0.3-2.7c0.5-0.6,0.8-0.8,1.5-0.8c0.2,0,0.6,0,1.1,0.2C110.3,52.9,110.4,53.2,110.5,53.5z"></path> <path fill="#E7DAD1" d="M134.7,77.7c0,1.5-1,1.9-2.4,2c-0.9,0-1.1-0.6-1.2-1.2l-0.9-7.8c-0.9,0-1.9,0-2.8,0l-0.2,1.5 c-0.3,2.1-0.7,5.5-1.1,6.5c-0.3,0.2-1.8,0.8-2.2,0.8c-0.7,0-1.2-0.4-1.2-1.5c0-0.3,0-0.6,0.1-1v0.1l0.7-4.1 c0.9-5.3,1.8-10.8,2.8-16.3c0,0,0-0.1,0-0.1c0.3-1.8,0.7-3.9,3.2-3.9c2,0,2.3,2.3,2.6,4c0.8,6.6,1.8,13.8,2.6,20.4v-0.1 C134.7,77.3,134.7,77.5,134.7,77.7z M129.9,68l-0.9-7.8l-0.1,1l-1,6.9H129.9z"></path> </g> <g> <path fill="#E7DAD1" d="M613.2,54.2c1.5,0,5.6,0,6,0.3c0.6,0.1,0.8,0.8,0.8,1.4c0,0.3-0.6,1.8-1.1,1.8c-0.1,0-0.4,0-0.8,0 c-0.9,0-1.9,0.1-3,0.1L615,65h1.9c2,0,3.3,1,4,2c1.1,1.3,1.2,3.6,1.2,4.8c0,5.6-0.3,9.4-5.1,9.5c-1.8,0-4.4,0.2-5-0.2 c-0.7-0.4-0.8-1.5-0.8-2l0.2-23.5C611.6,54.9,612.1,54.2,613.2,54.2z M614.9,76.6v1.1h1.8c1.5,0,2-1.5,2-3.3c0-0.4,0-0.9,0-1.3 v-0.6c0-2.6-0.4-4.2-2.4-4.2h-1.3C614.9,70.8,614.9,73.4,614.9,76.6z"></path> <path fill="#E7DAD1" d="M636.9,54.2c1.2,0,1.5,1.3,1.5,2.5v0.5c0,0-0.4,17.3-0.6,18.8c-0.4,2.2-1.4,5.4-5.3,5.4 c-0.7,0-4.3-0.3-4.3-5.6c0-1.7,0.6-2.2,1.9-2.2c1,0,1.2,0.6,1.5,3.3c0.1,0.7,0.3,1.4,1.3,1.4c0.9,0,1.2-1.7,1.2-2.9l0.1-3.5 c-0.5,0.1-1.1,0.2-1.7,0.2c-0.7,0-1.5-0.1-2.1-0.5c-2.5-1.5-2.6-7.2-2.6-10.7c0-1.4,0-2.2,0-3.5v-1c0-0.6,1.1-2,2.2-2 c0.9,0,1.4,0.6,1.4,1.8c0,3.6,0,7.5,0.4,11.2c0,0.4,0.4,1.5,1.3,1.5c0.2,0,0.6-0.1,1-0.4c0.1-4.8,0.3-10.6,0.3-11.1 c0-0.7,0-1.7,0.9-2.8C635.9,54.3,636.6,54.2,636.9,54.2z"></path> <path fill="#E7DAD1" d="M649.8,54.2c1.9,0,3.7,0.7,4.8,2.3c0.5,1.1,0.7,3.1,0.7,4.3c0,2.8-0.3,6.2-0.6,7.3 c-0.9,2.6-2.5,3.7-4.6,3.7c-0.6,0-1.7,0-1.8-0.1v4.9c0,1.5,0,2.6,0,2.6c0,0.3-0.6,2.2-2.1,2.2c-1.1,0-1.7-0.3-1.7-1.4l0.1-22.8 C645.3,54.4,648,54.2,649.8,54.2z M648.4,65.3c0,1.2,0,1.8,0,3.1h1.3c1.1,0,1.8-1.6,1.8-3.3c0-0.4,0-1.7,0-2.7v-1.3 c0-2.3-0.4-3.6-2.2-3.6h-0.9C648.4,60.7,648.4,63.2,648.4,65.3z"></path> <path fill="#E7DAD1" d="M665.6,77c0,1.7-0.1,4.1-2.3,4.1c-0.6,0-1.1-0.3-1.6-1.2c0.1-2,0.1-8.1,0.1-13.3c0-4.1,0-7.8,0-9.2 c0-0.6,0-1.8,0.5-2.6c0.8-0.6,2.1-0.7,4-0.7h0.4c0.8,0,1.9-0.1,3.3,0.6c0.3,0.2,0.4,0.7,0.4,1.5c0,0.5-0.2,1.2-0.6,1.4 c-0.7,0.3-1.2,0.3-2.1,0.3l-2,0.1C665.6,62,665.6,76.9,665.6,77z"></path> <path fill="#E7DAD1" d="M679.5,60.4c0,2.3,0,3.3,0,3.9V65c0,0.4,0,0.9-0.1,1.1h2.5c1.9,0,2,0.5,2,1.8c0,1.2-0.8,1.5-1.6,1.5H680 c-0.3,0-0.4,0-0.4,0.1c0,0.9,0,2.2,0,3.4c0,1.1,0,2.3,0,3.3c0,0.6,0,1.4,0,1.8h0.8c0.6,0,1.2-0.1,1.7-0.1c0.8,0,1.7,0.2,1.9,0.8 c0.1,0.2,0.1,0.7,0.1,1c0,0.9-0.7,1.4-1.4,1.5c-1.1,0.1-3.1,0.1-4.6,0.1c-1.9,0-2.4-0.3-2.4-2.2v-2c0.1-3.6,0.1-10.1,0.1-14.3 v-4.6c0-1.1,0-2.4,0.7-3.4c0.4-0.5,1.5-0.7,2.7-0.7c0.4,0,0.7,0,1.1,0h1.1c1.9,0,2.7,0.1,2.7,1.8c0,1.4-0.3,1.8-2.7,1.8h-2.2 C679.4,58.1,679.5,59.6,679.5,60.4z"></path> <path fill="#E7DAD1" d="M695.6,54.2c1.9,0,3.7,0.7,4.8,2.3c0.5,1.1,0.7,3.1,0.7,4.3c0,2.8-0.3,6.2-0.6,7.3 c-0.9,2.6-2.5,3.7-4.6,3.7c-0.6,0-1.7,0-1.8-0.1v4.9c0,1.5,0,2.6,0,2.6c0,0.3-0.6,2.2-2.1,2.2c-1.1,0-1.7-0.3-1.7-1.4l0.1-22.8 C691.1,54.4,693.8,54.2,695.6,54.2z M694.1,65.3c0,1.2,0,1.8,0,3.1h1.3c1.1,0,1.8-1.6,1.8-3.3c0-0.4,0-1.7,0-2.7v-1.3 c0-2.3-0.4-3.6-2.2-3.6h-0.9C694.2,60.7,694.1,63.2,694.1,65.3z"></path> <path fill="#E7DAD1" d="M718,63.9c0,0.8,0,1.9,0,2.7c0,8.7-1.1,14.8-5.3,14.8c-2.3,0-4.3-0.7-5.2-5.3c-0.4-2.1-0.7-5.1-0.7-7.8 c0-1,0-1.9,0-2.8v-2.1c0-3.3,1-9.7,6.1-9.7c2.9,0,4.8,3.8,4.9,7.1C718,62,718,62.9,718,63.9z M714.3,67.2c0-2.7,0-6.1-0.3-7.5 c-0.1-0.9-0.6-2.5-1.3-2.5c-1.1,0-2,1.8-2,10.6c0,3,0.1,10.3,1.9,10.3C714,78.1,714.3,72.3,714.3,67.2z"></path> <path fill="#E7DAD1" d="M733,66.1c0.4,0.3,0.8,0.7,1.1,1.1c1.1,1.3,1.2,3.5,1.2,4.8c0,5.5-0.3,9.3-5,9.4h-4.2 c-1.2,0-1.7-1.4-1.7-2.1l0.1-21.9c0.6-2.9,3.3-3,5.1-3c4,0,4.6,2.9,4.6,6.3C734.1,63.1,733.7,64.9,733,66.1z M729.8,77.9 c1.4,0,1.8-1.7,1.8-3.4c0-0.4,0-0.9,0-1.3v-0.6c0-2.2-0.1-4.6-2.3-4.6h-1.2v9.9H729.8z M729.3,65c1.1-0.1,1.2-2,1.2-3.7V60 c0-1.5-0.2-2.7-1.4-2.7c-0.3,0-0.7,0-0.7,0l-0.1,7.7H729.3z"></path> </g> <g> <path fill="#DC5541" d="M347.4,106.9C347.3,106.9,347.3,106.9,347.4,106.9l-148.5-9.2c-0.8,0-1.4-0.7-1.4-1.5v-5.9 c0-0.8,0.7-1.5,1.5-1.5s1.5,0.7,1.5,1.5v4.5l147,9.1c0.8,0.1,1.5,0.8,1.4,1.6C348.8,106.3,348.2,106.9,347.4,106.9z"></path> </g> <g> <path fill="#DC5541" d="M396.6,107c-0.8,0-1.4-0.6-1.5-1.4c-0.1-0.8,0.6-1.5,1.4-1.6l147-9.2v-4.5c0-0.8,0.7-1.5,1.5-1.5 s1.5,0.7,1.5,1.5v5.9c0,0.8-0.6,1.4-1.4,1.5L396.6,107C396.7,107,396.6,107,396.6,107z"></path> </g> <g> <path fill="#DC5541" d="M199,46.8c-0.8,0-1.5-0.7-1.5-1.5v-6.9c0-0.8,0.6-1.4,1.4-1.5l148.4-9.2c0.8,0,1.5,0.6,1.6,1.4 c0.1,0.8-0.6,1.5-1.4,1.6l-147,9.1v5.5C200.5,46.1,199.8,46.8,199,46.8z"></path> </g> <g> <path fill="#DC5541" d="M545,46.8c-0.8,0-1.5-0.7-1.5-1.5v-5.5l-147.1-9.2c-0.8-0.1-1.5-0.8-1.4-1.6c0.1-0.8,0.8-1.4,1.6-1.4 l148.5,9.3c0.8,0,1.4,0.7,1.4,1.5v6.9C546.5,46.1,545.8,46.8,545,46.8z"></path> </g> <g id="XMLID_2273_"> <g id="XMLID_2466_"> <path id="XMLID_2467_" fill="#E7DAD1" d="M413.9,51.2c0.2,0.6,0.2,2.5,0.2,3.9c0,1.6,0,3.3-0.1,4.9l-0.1,2.8 c1.1-3.1,2.3-7.3,3-9.6c0.3-0.8,1-2.2,1.4-2.5c0.2-0.1,0.7-0.1,1.2-0.1c0.8,0,1.6,0.3,1.6,1.4c0,0.6-0.3,1.9-0.5,2.3 c-0.4,0.8-1.1,2.9-2,5.2c-1.1,2.9-2.3,6.3-3,7.8c0.3,0.6,0.6,1.3,0.9,1.9c1.5,2.8,2.3,4.5,3,6.2l1.8,3.8c0.2,0.3,0.6,1.3,0.6,2.2 c0,1.1-1.1,1.7-2,1.7c-1.5,0-2-0.8-2.6-2.3l-1-2.3c-0.8-2.1-2.1-4.8-2.8-6.6c0,2.8,0,7.3,0,8.8c0,2.3-0.8,2.5-2,2.5 c-0.4,0-1-0.1-1.3-0.2c-0.4-0.2-0.7-1.2-0.7-2.2c0.2-6.1,0.5-22.6,0.5-26.6c0-1.2,0-2.6,0.4-3.1c0.5-0.6,0.8-0.8,1.6-0.8 c0.3,0,0.8,0,1.1,0.2C413.5,50.6,413.8,50.9,413.9,51.2z"></path> </g> <g id="XMLID_2443_"> <path id="XMLID_2446_" fill="#E7DAD1" d="M435.7,50.9c0.4,0.3,1,0.9,1,1.6c0,0.4-0.7,1.7-1.3,1.7c-0.1,0-0.6,0-1.2,0 c-0.2,0-0.4,0-0.6,0v5.2c0,4.3,0,8.6-0.1,12.1c0,2.1-0.1,4.7-0.1,5.9V79h1.7c0.7,0.3,1.3,0.4,1.5,1.2c0,1.1-0.2,2.2-1.1,2.4 c-0.2,0-0.8,0-1.5,0c-1.4,0-3.7,0-5.2-0.1c-0.4,0-1.1,0-1.3,0c-0.6,0-1.3-1.7-1.3-2c0-1.6,1.6-1.5,3.1-1.5V54.3H429 c-1.7,0-2.7-0.2-2.6-2c0.1-0.9,0.7-1.4,1.5-1.7C429.4,50.6,435.3,50.6,435.7,50.9z"></path> </g> <g id="XMLID_2438_"> <path id="XMLID_2441_" fill="#E7DAD1" d="M442.2,50.5c1.7,0,10.2,0,10.7,0.3c0.4,0.2,1.1,1.2,1.1,1.7c0,0.4-0.7,1.8-1.3,1.8 c-0.8,0-1.7,0.1-3.2,0.1c0,5.9,0,12.9-0.1,17.8c0,1.9,0,5.3,0,6.1v2.8c0,0.2-0.7,1.7-2.3,1.7c-1.9,0-2.1-0.9-2.1-2.1 c0-1.1,0-1.5,0-1.8c0-3.1,0.1-20.9,0.1-24.5h-1.2c-0.9,0-1.8,0-2,0c-1-0.2-1.1-1.1-1.1-2.1l0-0.1 C440.8,51.5,441.4,50.8,442.2,50.5z"></path> </g> <g id="XMLID_2428_"> <path id="XMLID_2430_" fill="#E7DAD1" d="M471,59.5c-0.4,0.6-1.3,0.9-2.1,0.9c-0.1,0-1.2-0.3-1.5-0.7c0-0.2-0.1-0.7-0.2-1.4 c-0.2-1.6-0.4-4.3-2.3-4.3c-1.6,0-2.5,3.6-2.5,5.7c0,0.5,0,1.2,0,2c0,1.2-0.1,3-0.1,4.8c0,2.4,0.1,4.5,0.1,4.8 c0,2.2,0.2,7.9,2.7,7.9c1.3,0,2.5-1.6,2.7-3.8c0-0.5,0-1.2,0-1.9c0.2-1,1.1-1.5,1.9-1.5c1.8,0,1.9,1.1,1.9,2.5 c0,1.3,0,2.6-0.4,3.7c-1.1,2.9-3.4,4.6-6.2,4.6c-4.4,0-6.2-3.4-6.6-7.5c-0.3-3-0.4-8.3-0.4-11c0-2.2,0.1-5.4,0.7-8 c1-4.5,3.6-5.9,6.4-5.9c3,0,4.6,1.9,5.4,4.4c0.5,1.5,0.5,2,0.6,3.8C471.1,59,471.1,59.3,471,59.5z"></path> </g> <g id="XMLID_2306_"> <path id="XMLID_2311_" fill="#E7DAD1" d="M480.7,66.7c0.5,0,1.1,0,1.7,0c0.8,0,1.9,0,2.7,0.1l0.2-14.8c0-0.8,0.8-1.6,1.9-1.6 c0.7,0,1.3,0.3,2.1,1.2c0,1.7,0,3.9,0,5.9c0,9.7-0.2,22.6-0.3,24.2c-0.7,0.6-1.7,0.9-2.5,0.9c-0.7,0-1.6-0.3-1.6-1.1v-5.6 c0-1.8,0-4,0-5.6l-4.4,0V77c0,2.4,0,5.2-1.5,5.6h-0.7c-1.1,0-1.8-0.6-1.8-1.9c0-2.9,0-5.5,0-7.7v-5c0-6,0-9.6,0-11.8 c0-2.6,0-3.3,0.1-3.9c0.1-1.5,1.1-1.5,2.1-1.5c0.8,0,2,0.6,2,1.5C480.8,58.7,480.7,63.3,480.7,66.7z"></path> </g> <g id="XMLID_2287_"> <path id="XMLID_2291_" fill="#E7DAD1" d="M499,57.9c0,2.7,0,4,0,4.8v1l0,1.1h3.3c2.2,0,2.3,0.5,2.3,2.1c0,1.1-1,1.7-1.9,1.7h-2.6 c-0.7,0-0.9,0-0.9,0.3v2.3c0,1.8,0,3.9,0,5.6l0,2.6c1.2,0,2.5-0.2,3.5-0.2c1.6,0,2.4,0.3,2.4,1.7c0,1.1-0.8,1.6-1.5,1.7 c-1.4,0.1-3.9,0.3-5.7,0.3c-2.2,0-2.8-0.5-2.8-2.6V78c0.1-3.9,0.1-10.8,0.1-15.8c0-3.1,0-5.4,0-5.7c0.1-1.6,0-3.7,0.8-5.1 c0.4-0.6,1.7-0.8,3.2-0.8c0.4,0,0.9,0,1.4,0h1.3c2.3,0,3.2,0.1,3.2,2c0,1.6-0.4,1.9-3.2,1.9h-0.4l-2.8,0.1 C499,54.7,499,57.6,499,57.9z"></path> </g> <g id="XMLID_2275_"> <path id="XMLID_2282_" fill="#E7DAD1" d="M513.6,51c0.6,0.1,1,0.6,1.8,3.4c1.5,5.2,3.9,14,5.6,19.7c0-0.7-0.1-3.5-0.1-4 c0-4-0.3-9.2-0.3-13.2v-4c0-1.2,0.4-2.3,3.2-2.6c0.5,0.2,0.6,0.6,0.6,1.2c0,1.1,0,4,0.1,7.2c0,5,0.1,11.9,0.1,16.2 c0,2.7,0,4.4-0.1,4.9c-0.2,1.1-2,2.1-3.3,2.1c-0.9,0-1.3-0.3-1.6-1.1l-5.2-17c0,1.3,0.1,4.8,0.1,5.3c0,5.7,0.2,12.1,0.2,12.1 c-1.1,1.1-1.6,1.3-2.7,1.3c-1.5,0-1.5-3.6-1.5-8.3v-8.2c0-6.1,0-11.7,0.1-13.1C510.7,51.6,511.8,51,513.6,51z"></path> </g> </g> <g id="XMLID_2216_"> <g id="XMLID_2266_"> <path id="XMLID_2268_" fill="#E7DAD1" d="M281.7,58.9c0,1-0.2,1.8-1.5,1.8c-1.1,0-2.2,0-2.6-1.5c0-0.1-0.1-1-0.1-1.7 c0-1.5-0.2-3.8-1.2-3.8c-1.5,0-1.8,1.6-1.8,3.3c0,2.2,1.8,4.9,3.3,7.2c2,2.9,4.1,6.1,4.1,9.8c0,4.9-1.5,9.2-6.5,9.2 c-3.5,0-5.5-3.9-5.5-7.3c0-1.4,0.5-2.7,2.2-2.7c1.4,0,2.3,0.8,2.3,2.4c0.1,1.2,0.1,4.2,1.5,4.2c1.6,0,1.8-2.8,1.8-4.2 c0-3.1-1.7-5.6-3.3-8.1c-1.9-2.9-4.1-5.9-4.1-10.3c0-4.1,2.6-6.7,5.9-6.7C280.9,50.5,281.6,55.5,281.7,58.9z"></path> </g> <g id="XMLID_2225_"> <path id="XMLID_2228_" fill="#E7DAD1" d="M300,62.2c0,1,0,2.3,0,3.2c0,10.3-1.4,17.6-6.4,17.6c-2.7,0-5.2-0.9-6.3-6.3 c-0.5-2.5-0.8-6.1-0.8-9.3c0-1.1,0-2.3,0-3.3v-2.5c0-4,1.2-11.4,7.4-11.4c3.5,0,5.7,4.5,5.9,8.4C299.9,59.8,299.9,61,300,62.2z M295.8,66c0-3.3-0.1-7.3-0.4-9c-0.1-1.1-1-3.2-2-3.2c-1.5,0-2.7,2.2-2.7,12.9c0,3.7,0.2,12.7,2.6,12.7 C295.3,79.5,295.8,72.3,295.8,66z"></path> </g> <g id="XMLID_2222_"> <path id="XMLID_2223_" fill="#E7DAD1" d="M307.7,50.8c2.1,0,2.1,1.9,2.1,3.1v21.8c0,1.5,0.9,3.9,2.3,3.9c2.4,0,2.8-5.5,2.8-9.8 c0-2.2,0-4.2,0.1-6.1c0-1.8,0-3.6,0-5.4c0-1.5,0-3.7,0-5.2c0.6-2,2.2-2.2,3.2-2.2c0.4,0,0.9,0.1,1.3,1.3c0,3.4-0.5,22.3-0.8,24 c-1.3,6.3-4.1,7-7,7c-3.3,0-4.6-2.1-5.5-4.4c-0.7-1.8-0.8-11.1-0.9-19.6l-0.1-6.4l0.1-0.4C305.9,51.5,306.5,50.8,307.7,50.8z"></path> </g> <g id="XMLID_2217_"> <path id="XMLID_2219_" fill="#E7DAD1" d="M329.2,78.8l0.8,0h2.1c1,0,2,0,2.6,0.3c0.2,0.1,0.7,0.6,0.7,1.3c0,0.8-0.1,1.5-0.9,1.9 c-0.7,0.4-2.3,0.4-4,0.4c-2.2,0-3.8,0-4.7-0.7c-0.5-0.7-0.6-1.7-0.7-3c0.1-1.6,0.1-6.4,0.1-11.5c0-6.3,0-13.4-0.2-15.7 c0.6-1,1.3-1.4,1.9-1.4c0.7,0,1.2,0.4,1.5,0.6c0.8,0.6,0.9,2.5,0.9,4.3C329.4,58.4,329.4,74.1,329.2,78.8z"></path> </g> </g> <path fill="#E7DAD1" d="M255,82.7l-3.9-28.4c0-0.2-0.1-0.3-0.1-0.4c-0.3-1.6-1.1-3-2.4-4c-1.4-1.1-3.2-1.7-5-1.5 c-6.3,0-14.9,0-15.6,0c-1.4-0.2-2.7,0.3-3.8,1.3c-1.3,1.3-2,3.2-1.8,5.1c0.1,1.3,0.8,2.5,1.8,3.4c0.9,0.7,2,1.2,3.2,1.2 c0.1,0,0.3,0,0.4,0h2.1l-5.5,7.6c-1.7,2.2-2.7,4.9-2.6,7.7l0,8.4c0,0.1,0,0.3,0,0.4c0,1,0.8,1.8,1.8,1.8l15.9,0.1c0,0,0,0,0,0 c0.2,0,0.3-0.1,0.5-0.1l6-1.7l6.9,1.6c1,0.2,1.9-0.4,2.1-1.3c0-0.1,0-0.3,0-0.4C255,83.2,255.1,82.9,255,82.7z M227.8,55.3 c-0.1,0-0.1,0.2-0.2,0.2c-0.4,0-0.8,0-1.1-0.2c-0.3-0.3-0.5-0.6-0.5-1c-0.1-0.8,0.2-1.7,0.8-2.2c0.4-0.4,0.8-0.4,0.9-0.3 c0.3,0,4.1,0.1,11.2,0c-0.4,0.9-0.5,1.7-0.4,2.7c0,0.3,0.1,0.8,0.2,0.8H227.8z M227.3,69l7-9.7h8.1c0.1,0,0.1-0.1,0.2-0.1 c0.1,0,0.1,0,0.2,0c1,0,1.8-0.7,1.9-1.7c0-1-0.7-1.8-1.7-1.9c-0.6,0-0.9-0.5-1-1.3c-0.1-0.6,0.1-1.2,0.5-1.7 c0.4-0.5,0.9-0.8,1.5-0.8c0.3,0,0.5,0,0.8,0c0.6,0.1,1.2,0.3,1.7,0.7c0.7,0.6,1.1,1.4,1.2,2.2c0.1,1.1-0.2,2.1-1.1,3.5l-6.2,8.6 c-1.7,2.2-2.7,5-2.6,7.8l0,7.1l-12.4,0l0-7C225.3,72.6,226,70.6,227.3,69z M245.4,79.9l-4.2,1.2l0-6.5c0-2,0.7-4,1.9-5.6l5.4-7.5 l2.7,19.6l-4.9-1.2C246,79.8,245.7,79.8,245.4,79.9z"></path> <g id="XMLID_2191_"> <path id="XMLID_2192_" fill="#DC5541" d="M169.9,88.9c-1.3,0-2.4-0.2-3.4-0.4c-4.3-1.1-7.3-4.1-8-5.8c-0.2-0.5-0.2-1,0-1.4 c0.2-0.5,0.6-0.8,1.1-0.9c0.8-0.2,1.6-0.5,2.4-0.8c-3.6-0.5-6.4-1.6-8.9-3.6c-5-4-5.4-9.5-5.5-9.7c0-0.5,0.2-1.1,0.6-1.4 c0.4-0.4,0.9-0.5,1.5-0.4c0,0,2.3,0.4,5.3,0.5c-2.3-1.3-4-3-5.4-5.2c-5.7-9,1.4-18,2.2-18.9c0.4-0.5,1-0.7,1.6-0.6 c0.6,0.1,1.1,0.5,1.4,1c0.6,1.2,6,12.1,20.8,11.4c12.4-0.6,21.7-0.4,28.5,6c3.7,3.5,5.2,9.6,3.7,15.1c-1.4,4.9-4.9,8.3-9.7,9.4 c-9.1,2-14.3-4.1-15.7-7.6c-0.4-0.9,0.1-1.9,1-2.3c0.9-0.4,1.9,0.1,2.3,1c0.1,0.3,3.2,7.4,11.6,5.5c4.7-1.1,6.4-4.8,7-6.9 c1.2-4.2,0-8.9-2.7-11.5c-5.3-5.1-12.6-5.7-25.9-5.1c-13.1,0.6-19.9-6.8-22.7-10.9c-1.6,2.8-3.5,7.7-0.5,12.6 c1.7,2.7,4.3,4.9,11.1,6.6c0.8,0.2,1.4,0.9,1.3,1.8c0,0.8-0.6,1.5-1.4,1.7c-4.3,0.9-9.1,0.6-12,0.3c0.5,1.5,1.6,3.4,3.6,5 c3.3,2.6,7.2,3.4,13.9,2.9c0.8-0.1,1.5,0.4,1.8,1.2c0.3,0.8,0,1.6-0.7,2c-2.6,1.8-5,2.8-7.1,3.6c1,0.8,2.5,1.7,4.3,2.2 c3.5,0.9,7-0.1,10.5-2.8c0.8-0.6,1.9-0.5,2.5,0.3c0.6,0.8,0.5,1.9-0.3,2.5C176.3,88,172.7,88.9,169.9,88.9z"></path> </g> <g id="XMLID_2189_"> <path id="XMLID_2190_" fill="#DC5541" d="M574.4,88.9c1.3,0,2.4-0.2,3.4-0.4c4.3-1.1,7.3-4.1,8-5.8c0.2-0.5,0.2-1,0-1.4 c-0.2-0.5-0.6-0.8-1.1-0.9c-0.8-0.2-1.6-0.5-2.4-0.8c3.6-0.5,6.4-1.6,8.9-3.6c5-4,5.4-9.5,5.5-9.7c0-0.5-0.2-1.1-0.6-1.4 c-0.4-0.4-0.9-0.5-1.5-0.4c0,0-2.3,0.4-5.3,0.5c2.3-1.3,4-3,5.4-5.2c5.7-9-1.4-18-2.2-18.9c-0.4-0.5-1-0.7-1.6-0.6 c-0.6,0.1-1.1,0.5-1.4,1c-0.6,1.2-6,12.1-20.8,11.4c-12.4-0.6-21.7-0.4-28.5,6c-3.7,3.5-5.2,9.6-3.7,15.1c1.4,4.9,4.9,8.3,9.7,9.4 c9.1,2,14.3-4.1,15.7-7.6c0.4-0.9-0.1-1.9-1-2.3c-0.9-0.4-1.9,0.1-2.3,1c-0.1,0.3-3.2,7.4-11.6,5.5c-4.7-1.1-6.4-4.8-7-6.9 c-1.2-4.2,0-8.9,2.7-11.5c5.3-5.1,12.6-5.7,25.9-5.1c13.1,0.6,19.9-6.8,22.7-10.9c1.6,2.8,3.5,7.7,0.5,12.6 c-1.7,2.7-4.3,4.9-11.1,6.6c-0.8,0.2-1.4,0.9-1.3,1.8c0,0.8,0.6,1.5,1.4,1.7c4.3,0.9,9.1,0.6,12,0.3c-0.5,1.5-1.6,3.4-3.6,5 c-3.3,2.6-7.2,3.4-13.9,2.9c-0.8-0.1-1.5,0.4-1.8,1.2c-0.3,0.8,0,1.6,0.7,2c2.6,1.8,5,2.8,7.1,3.6c-1,0.8-2.5,1.7-4.3,2.2 c-3.5,0.9-7-0.1-10.5-2.8c-0.8-0.6-1.9-0.5-2.5,0.3c-0.6,0.8-0.5,1.9,0.3,2.5C568,88,571.5,88.9,574.4,88.9z"></path> </g> <g> <path fill="#DC5541" d="M356.9,24.9c0,5.6,12.6,5.9,15.2,5.9c2.5,0,15.2-0.3,15.2-5.9c0-5.3-10.6-5.8-15.2-5.8 C367.5,19.1,356.9,19.6,356.9,24.9z M383.7,24.9c-0.5,0.9-4.7,2.3-11.6,2.3c-6.9,0-11.1-1.5-11.6-2.3c0.4-0.8,4.2-2.3,11.6-2.3 C379.5,22.6,383.3,24.1,383.7,24.9z"></path> <path fill="#DC5541" d="M394.9,73.6c-2.6,0-4,1.4-5.1,2.5c-0.9,0.9-1.4,1.4-2.5,1.4c-1.1,0-1.6-0.5-2.5-1.4c-1-1-2.4-2.5-5.1-2.5 c-2.6,0-4,1.4-5.1,2.5c-0.9,0.9-1.4,1.4-2.5,1.4c-1.1,0-1.6-0.5-2.5-1.4c-1-1-2.4-2.5-5.1-2.5c-2.6,0-4,1.4-5.1,2.5 c-0.9,0.9-1.4,1.4-2.5,1.4c-1.1,0-1.6-0.5-2.5-1.4c-1-1-2.4-2.5-5.1-2.5c-1,0-1.8,0.8-1.8,1.8c0,1,0.8,1.8,1.8,1.8 c1.1,0,1.6,0.5,2.5,1.4c1,1,2.4,2.5,5.1,2.5c2.6,0,4-1.4,5.1-2.5c0.9-0.9,1.4-1.4,2.5-1.4c1.1,0,1.6,0.5,2.5,1.4 c1,1,2.4,2.5,5.1,2.5c2.6,0,4-1.4,5.1-2.5c0.9-0.9,1.4-1.4,2.5-1.4c1.1,0,1.6,0.5,2.5,1.4c1,1,2.4,2.5,5.1,2.5 c2.6,0,4-1.4,5.1-2.5c0.9-0.9,1.4-1.4,2.5-1.4c1,0,1.8-0.8,1.8-1.8S395.8,73.6,394.9,73.6z"></path> <path fill="#DC5541" d="M392.9,84.3h-20.8h-20.8c-0.5,0-1,0.2-1.3,0.6c-0.3,0.4-0.5,0.8-0.5,1.3c0.1,1.2,0.2,2.5,0.9,4.1 c0.9,2.3,3.8,5,8.2,6c1.9,0.4,7.8,1.1,13.5,1.1c5.7,0,11.6-0.6,13.5-1.1c4.4-1,7.2-3.8,8.2-6c0.7-1.6,0.8-2.9,0.9-4.1 c0-0.5-0.2-1-0.5-1.3C393.9,84.5,393.4,84.3,392.9,84.3z M390.5,88.7c-0.6,1.4-2.8,3.4-5.7,4.1c-1.5,0.4-7.1,1.1-12.7,1.1 c-5.7,0-11.2-0.6-12.7-0.9c-2.9-0.7-5.1-2.8-5.7-4.2c-0.2-0.4-0.3-0.4-0.4-1.4h18.8h18.8C390.8,88.3,390.7,88.3,390.5,88.7z"></path> <path fill="#DC5541" d="M372,35.2c-13.3,0-25,9.9-25,21.2v1.5c0,2.3,1.9,4.2,4.2,4.3c4.2,0.2,11.3,0.5,20.7,0.5c0,0,0.1,0,0.1,0 c0,0,0.1,0,0.1,0c10,0,17.2-0.3,20.7-0.5c2.3-0.1,4.1-2,4.1-4.3v-1.5C397,45.1,385.3,35.2,372,35.2z M393,57.9 c0,0.4-0.1,0.7-0.5,0.8c-3.4,0.2-10.5,0.5-20.4,0.5c0,0,0,0-0.1,0c0,0,0,0-0.1,0c-9.4,0-16.2-0.3-20.4-0.5c-0.4,0-0.6-0.4-0.6-0.8 v-1.5c0-9.4,9.6-17.6,21-17.6s21,8.2,21,17.6V57.9z"></path> <path fill="#DC5541" d="M383,47.8c-0.8-0.6-1.9-0.5-2.5,0.2c-0.6,0.8-0.5,1.9,0.2,2.5l0.3,0.2c0.3,0.3,0.7,0.4,1.1,0.4 c0.5,0,1-0.2,1.4-0.6c0.6-0.8,0.5-1.9-0.2-2.5L383,47.8z"></path> <path fill="#DC5541" d="M377.4,43.3h-0.6c-1,0-1.8,1-1.8,2s0.8,2,1.8,2h0.6c1,0,1.8-1,1.8-2S378.4,43.3,377.4,43.3z"></path> <path fill="#DC5541" d="M372.4,47.3h-0.6c-1,0-1.8,0.5-1.8,1.5s0.8,1.5,1.8,1.5h0.6c1,0,1.8-0.5,1.8-1.5S373.4,47.3,372.4,47.3z"></path> <path fill="#DC5541" d="M367.4,43.3h-0.6c-1,0-1.8,1-1.8,2s0.8,2,1.8,2h0.6c1,0,1.8-1,1.8-2S368.4,43.3,367.4,43.3z"></path> <path fill="#DC5541" d="M361.2,47.8l-0.3,0.2c-0.8,0.6-0.9,1.7-0.2,2.5c0.4,0.4,0.9,0.6,1.4,0.6c0.4,0,0.8-0.1,1.1-0.4l0.3-0.2 c0.8-0.6,0.9-1.7,0.2-2.5C363.1,47.3,362,47.2,361.2,47.8z"></path> <path fill="#DC5541" d="M372,101.1c-1,0-2,0.8-2,1.8v11.7c0,1,1,1.8,2,1.8c1,0,2-0.8,2-1.8v-11.7C374,101.9,373,101.1,372,101.1z"></path> <path fill="#DC5541" d="M384.3,101.1c-0.5-0.9-1.6-1.1-2.4-0.7c-0.8,0.5-1.1,1.6-0.7,2.4l5.2,8.9c0.3,0.6,0.9,0.9,1.5,0.9 c0.3,0,0.6-0.1,0.9-0.2c0.8-0.5,1.1-1.6,0.7-2.4L384.3,101.1z"></path> <path fill="#DC5541" d="M362.3,100.4c-0.8-0.5-1.9-0.2-2.4,0.7l-5.2,8.9c-0.5,0.9-0.2,1.9,0.7,2.4c0.3,0.2,0.6,0.2,0.9,0.2 c0.6,0,1.2-0.3,1.5-0.9l5.2-8.9C363.4,102,363.2,100.9,362.3,100.4z"></path> <path fill="#DC5541" d="M372,15.2c1,0,2-0.8,2-1.8V1.8c0-1-1-1.8-2-1.8s-2,0.8-2,1.8v11.7C370,14.4,371,15.2,372,15.2z"></path> <path fill="#DC5541" d="M381.9,15.9c0.8,0.5,1.9,0.2,2.4-0.7l5.2-8.9c0.5-0.9,0.2-1.9-0.7-2.4c-0.3-0.2-0.6-0.2-0.9-0.2 c-0.6,0-1.2,0.3-1.5,0.9l-5.2,8.9C380.8,14.3,381.1,15.4,381.9,15.9z"></path> <path fill="#DC5541" d="M359.9,15.3c0.5,0.9,1.6,1.1,2.4,0.7c0.8-0.5,1.1-1.6,0.7-2.4l-5.2-8.9c-0.3-0.6-0.9-0.9-1.5-0.9 c-0.3,0-0.6,0.1-0.9,0.2c-0.8,0.5-1.1,1.6-0.7,2.4L359.9,15.3z"></path> <path fill="#DC5541" d="M372,70.5c7.8,0,15.5-0.2,22.9-0.5c1,0,1.7-0.9,1.7-1.9c0-1-0.9-1.7-1.9-1.7c-14.7,0.6-30.6,0.6-45.4,0 c-1,0-1.8,0.7-1.9,1.7c0,1,0.7,1.8,1.7,1.9C356.7,70.3,364.3,70.5,372,70.5z"></path> </g> </g> </svg> 