<svg xmlns="http://www.w3.org/2000/svg" id="Layer_1" x="0px" y="0px" viewBox="0 0 735.3 116.3" className={style.icon}>  
        
    <!-- {/* пакет */} -->
    <path fill="#E7DAD1" d="M255,82.7l-3.9-28.4c0-0.2-0.1-0.3-0.1-0.4c-0.3-1.6-1.1-3-2.4-4c-1.4-1.1-3.2-1.7-5-1.5 c-6.3,0-14.9,0-15.6,0c-1.4-0.2-2.7,0.3-3.8,1.3c-1.3,1.3-2,3.2-1.8,5.1c0.1,1.3,0.8,2.5,1.8,3.4c0.9,0.7,2,1.2,3.2,1.2 c0.1,0,0.3,0,0.4,0h2.1l-5.5,7.6c-1.7,2.2-2.7,4.9-2.6,7.7l0,8.4c0,0.1,0,0.3,0,0.4c0,1,0.8,1.8,1.8,1.8l15.9,0.1c0,0,0,0,0,0 c0.2,0,0.3-0.1,0.5-0.1l6-1.7l6.9,1.6c1,0.2,1.9-0.4,2.1-1.3c0-0.1,0-0.3,0-0.4C255,83.2,255.1,82.9,255,82.7z M227.8,55.3 c-0.1,0-0.1,0.2-0.2,0.2c-0.4,0-0.8,0-1.1-0.2c-0.3-0.3-0.5-0.6-0.5-1c-0.1-0.8,0.2-1.7,0.8-2.2c0.4-0.4,0.8-0.4,0.9-0.3 c0.3,0,4.1,0.1,11.2,0c-0.4,0.9-0.5,1.7-0.4,2.7c0,0.3,0.1,0.8,0.2,0.8H227.8z M227.3,69l7-9.7h8.1c0.1,0,0.1-0.1,0.2-0.1 c0.1,0,0.1,0,0.2,0c1,0,1.8-0.7,1.9-1.7c0-1-0.7-1.8-1.7-1.9c-0.6,0-0.9-0.5-1-1.3c-0.1-0.6,0.1-1.2,0.5-1.7 c0.4-0.5,0.9-0.8,1.5-0.8c0.3,0,0.5,0,0.8,0c0.6,0.1,1.2,0.3,1.7,0.7c0.7,0.6,1.1,1.4,1.2,2.2c0.1,1.1-0.2,2.1-1.1,3.5l-6.2,8.6 c-1.7,2.2-2.7,5-2.6,7.8l0,7.1l-12.4,0l0-7C225.3,72.6,226,70.6,227.3,69z M245.4,79.9l-4.2,1.2l0-6.5c0-2,0.7-4,1.9-5.6l5.4-7.5 l2.7,19.6l-4.9-1.2C246,79.8,245.7,79.8,245.4,79.9z"/> 
    <!-- {/* крыло левое */} -->
    <path id="XMLID_2192_" fill="#DC5541" d="M169.9,88.9c-1.3,0-2.4-0.2-3.4-0.4c-4.3-1.1-7.3-4.1-8-5.8c-0.2-0.5-0.2-1,0-1.4 c0.2-0.5,0.6-0.8,1.1-0.9c0.8-0.2,1.6-0.5,2.4-0.8c-3.6-0.5-6.4-1.6-8.9-3.6c-5-4-5.4-9.5-5.5-9.7c0-0.5,0.2-1.1,0.6-1.4 c0.4-0.4,0.9-0.5,1.5-0.4c0,0,2.3,0.4,5.3,0.5c-2.3-1.3-4-3-5.4-5.2c-5.7-9,1.4-18,2.2-18.9c0.4-0.5,1-0.7,1.6-0.6 c0.6,0.1,1.1,0.5,1.4,1c0.6,1.2,6,12.1,20.8,11.4c12.4-0.6,21.7-0.4,28.5,6c3.7,3.5,5.2,9.6,3.7,15.1c-1.4,4.9-4.9,8.3-9.7,9.4 c-9.1,2-14.3-4.1-15.7-7.6c-0.4-0.9,0.1-1.9,1-2.3c0.9-0.4,1.9,0.1,2.3,1c0.1,0.3,3.2,7.4,11.6,5.5c4.7-1.1,6.4-4.8,7-6.9 c1.2-4.2,0-8.9-2.7-11.5c-5.3-5.1-12.6-5.7-25.9-5.1c-13.1,0.6-19.9-6.8-22.7-10.9c-1.6,2.8-3.5,7.7-0.5,12.6 c1.7,2.7,4.3,4.9,11.1,6.6c0.8,0.2,1.4,0.9,1.3,1.8c0,0.8-0.6,1.5-1.4,1.7c-4.3,0.9-9.1,0.6-12,0.3c0.5,1.5,1.6,3.4,3.6,5 c3.3,2.6,7.2,3.4,13.9,2.9c0.8-0.1,1.5,0.4,1.8,1.2c0.3,0.8,0,1.6-0.7,2c-2.6,1.8-5,2.8-7.1,3.6c1,0.8,2.5,1.7,4.3,2.2 c3.5,0.9,7-0.1,10.5-2.8c0.8-0.6,1.9-0.5,2.5,0.3c0.6,0.8,0.5,1.9-0.3,2.5C176.3,88,172.7,88.9,169.9,88.9z"/>

    <!-- {/* крыло правое */} -->
    <path id="XMLID_2190_" fill="#DC5541" d="M574.4,88.9c1.3,0,2.4-0.2,3.4-0.4c4.3-1.1,7.3-4.1,8-5.8c0.2-0.5,0.2-1,0-1.4 c-0.2-0.5-0.6-0.8-1.1-0.9c-0.8-0.2-1.6-0.5-2.4-0.8c3.6-0.5,6.4-1.6,8.9-3.6c5-4,5.4-9.5,5.5-9.7c0-0.5-0.2-1.1-0.6-1.4 c-0.4-0.4-0.9-0.5-1.5-0.4c0,0-2.3,0.4-5.3,0.5c2.3-1.3,4-3,5.4-5.2c5.7-9-1.4-18-2.2-18.9c-0.4-0.5-1-0.7-1.6-0.6 c-0.6,0.1-1.1,0.5-1.4,1c-0.6,1.2-6,12.1-20.8,11.4c-12.4-0.6-21.7-0.4-28.5,6c-3.7,3.5-5.2,9.6-3.7,15.1c1.4,4.9,4.9,8.3,9.7,9.4 c9.1,2,14.3-4.1,15.7-7.6c0.4-0.9-0.1-1.9-1-2.3c-0.9-0.4-1.9,0.1-2.3,1c-0.1,0.3-3.2,7.4-11.6,5.5c-4.7-1.1-6.4-4.8-7-6.9 c-1.2-4.2,0-8.9,2.7-11.5c5.3-5.1,12.6-5.7,25.9-5.1c13.1,0.6,19.9-6.8,22.7-10.9c1.6,2.8,3.5,7.7,0.5,12.6 c-1.7,2.7-4.3,4.9-11.1,6.6c-0.8,0.2-1.4,0.9-1.3,1.8c0,0.8,0.6,1.5,1.4,1.7c4.3,0.9,9.1,0.6,12,0.3c-0.5,1.5-1.6,3.4-3.6,5 c-3.3,2.6-7.2,3.4-13.9,2.9c-0.8-0.1-1.5,0.4-1.8,1.2c-0.3,0.8,0,1.6,0.7,2c2.6,1.8,5,2.8,7.1,3.6c-1,0.8-2.5,1.7-4.3,2.2 c-3.5,0.9-7-0.1-10.5-2.8c-0.8-0.6-1.9-0.5-2.5,0.3c-0.6,0.8-0.5,1.9,0.3,2.5C568,88,571.5,88.9,574.4,88.9z"/>
    <!-- {/* бургер */} -->
    <path fill="#DC5541" d="M356.9,24.9c0,5.6,12.6,5.9,15.2,5.9c2.5,0,15.2-0.3,15.2-5.9c0-5.3-10.6-5.8-15.2-5.8 C367.5,19.1,356.9,19.6,356.9,24.9z M383.7,24.9c-0.5,0.9-4.7,2.3-11.6,2.3c-6.9,0-11.1-1.5-11.6-2.3c0.4-0.8,4.2-2.3,11.6-2.3 C379.5,22.6,383.3,24.1,383.7,24.9z"/> 
    <path fill="#DC5541" d="M394.9,73.6c-2.6,0-4,1.4-5.1,2.5c-0.9,0.9-1.4,1.4-2.5,1.4c-1.1,0-1.6-0.5-2.5-1.4c-1-1-2.4-2.5-5.1-2.5 c-2.6,0-4,1.4-5.1,2.5c-0.9,0.9-1.4,1.4-2.5,1.4c-1.1,0-1.6-0.5-2.5-1.4c-1-1-2.4-2.5-5.1-2.5c-2.6,0-4,1.4-5.1,2.5 c-0.9,0.9-1.4,1.4-2.5,1.4c-1.1,0-1.6-0.5-2.5-1.4c-1-1-2.4-2.5-5.1-2.5c-1,0-1.8,0.8-1.8,1.8c0,1,0.8,1.8,1.8,1.8 c1.1,0,1.6,0.5,2.5,1.4c1,1,2.4,2.5,5.1,2.5c2.6,0,4-1.4,5.1-2.5c0.9-0.9,1.4-1.4,2.5-1.4c1.1,0,1.6,0.5,2.5,1.4 c1,1,2.4,2.5,5.1,2.5c2.6,0,4-1.4,5.1-2.5c0.9-0.9,1.4-1.4,2.5-1.4c1.1,0,1.6,0.5,2.5,1.4c1,1,2.4,2.5,5.1,2.5 c2.6,0,4-1.4,5.1-2.5c0.9-0.9,1.4-1.4,2.5-1.4c1,0,1.8-0.8,1.8-1.8S395.8,73.6,394.9,73.6z"/> 
    <path fill="#DC5541" d="M392.9,84.3h-20.8h-20.8c-0.5,0-1,0.2-1.3,0.6c-0.3,0.4-0.5,0.8-0.5,1.3c0.1,1.2,0.2,2.5,0.9,4.1 c0.9,2.3,3.8,5,8.2,6c1.9,0.4,7.8,1.1,13.5,1.1c5.7,0,11.6-0.6,13.5-1.1c4.4-1,7.2-3.8,8.2-6c0.7-1.6,0.8-2.9,0.9-4.1 c0-0.5-0.2-1-0.5-1.3C393.9,84.5,393.4,84.3,392.9,84.3z M390.5,88.7c-0.6,1.4-2.8,3.4-5.7,4.1c-1.5,0.4-7.1,1.1-12.7,1.1 c-5.7,0-11.2-0.6-12.7-0.9c-2.9-0.7-5.1-2.8-5.7-4.2c-0.2-0.4-0.3-0.4-0.4-1.4h18.8h18.8C390.8,88.3,390.7,88.3,390.5,88.7z"/> 
    <path fill="#DC5541" d="M372,35.2c-13.3,0-25,9.9-25,21.2v1.5c0,2.3,1.9,4.2,4.2,4.3c4.2,0.2,11.3,0.5,20.7,0.5c0,0,0.1,0,0.1,0 c0,0,0.1,0,0.1,0c10,0,17.2-0.3,20.7-0.5c2.3-0.1,4.1-2,4.1-4.3v-1.5C397,45.1,385.3,35.2,372,35.2z M393,57.9 c0,0.4-0.1,0.7-0.5,0.8c-3.4,0.2-10.5,0.5-20.4,0.5c0,0,0,0-0.1,0c0,0,0,0-0.1,0c-9.4,0-16.2-0.3-20.4-0.5c-0.4,0-0.6-0.4-0.6-0.8 v-1.5c0-9.4,9.6-17.6,21-17.6s21,8.2,21,17.6V57.9z"/> 
    <path fill="#DC5541" d="M383,47.8c-0.8-0.6-1.9-0.5-2.5,0.2c-0.6,0.8-0.5,1.9,0.2,2.5l0.3,0.2c0.3,0.3,0.7,0.4,1.1,0.4 c0.5,0,1-0.2,1.4-0.6c0.6-0.8,0.5-1.9-0.2-2.5L383,47.8z"/> 
    <path fill="#DC5541" d="M377.4,43.3h-0.6c-1,0-1.8,1-1.8,2s0.8,2,1.8,2h0.6c1,0,1.8-1,1.8-2S378.4,43.3,377.4,43.3z"/> 
    <path fill="#DC5541" d="M372.4,47.3h-0.6c-1,0-1.8,0.5-1.8,1.5s0.8,1.5,1.8,1.5h0.6c1,0,1.8-0.5,1.8-1.5S373.4,47.3,372.4,47.3z"/> 
    <path fill="#DC5541" d="M367.4,43.3h-0.6c-1,0-1.8,1-1.8,2s0.8,2,1.8,2h0.6c1,0,1.8-1,1.8-2S368.4,43.3,367.4,43.3z"/> 
    <path fill="#DC5541" d="M361.2,47.8l-0.3,0.2c-0.8,0.6-0.9,1.7-0.2,2.5c0.4,0.4,0.9,0.6,1.4,0.6c0.4,0,0.8-0.1,1.1-0.4l0.3-0.2 c0.8-0.6,0.9-1.7,0.2-2.5C363.1,47.3,362,47.2,361.2,47.8z"/> 
    <path fill="#DC5541" d="M372,101.1c-1,0-2,0.8-2,1.8v11.7c0,1,1,1.8,2,1.8c1,0,2-0.8,2-1.8v-11.7C374,101.9,373,101.1,372,101.1z"/> 
    <path fill="#DC5541" d="M384.3,101.1c-0.5-0.9-1.6-1.1-2.4-0.7c-0.8,0.5-1.1,1.6-0.7,2.4l5.2,8.9c0.3,0.6,0.9,0.9,1.5,0.9 c0.3,0,0.6-0.1,0.9-0.2c0.8-0.5,1.1-1.6,0.7-2.4L384.3,101.1z"/>
    <path fill="#DC5541" d="M362.3,100.4c-0.8-0.5-1.9-0.2-2.4,0.7l-5.2,8.9c-0.5,0.9-0.2,1.9,0.7,2.4c0.3,0.2,0.6,0.2,0.9,0.2 c0.6,0,1.2-0.3,1.5-0.9l5.2-8.9C363.4,102,363.2,100.9,362.3,100.4z"/>
    <path fill="#DC5541" d="M372,15.2c1,0,2-0.8,2-1.8V1.8c0-1-1-1.8-2-1.8s-2,0.8-2,1.8v11.7C370,14.4,371,15.2,372,15.2z"/>
    <path fill="#DC5541" d="M381.9,15.9c0.8,0.5,1.9,0.2,2.4-0.7l5.2-8.9c0.5-0.9,0.2-1.9-0.7-2.4c-0.3-0.2-0.6-0.2-0.9-0.2 c-0.6,0-1.2,0.3-1.5,0.9l-5.2,8.9C380.8,14.3,381.1,15.4,381.9,15.9z"/> 
    <path fill="#DC5541" d="M359.9,15.3c0.5,0.9,1.6,1.1,2.4,0.7c0.8-0.5,1.1-1.6,0.7-2.4l-5.2-8.9c-0.3-0.6-0.9-0.9-1.5-0.9 c-0.3,0-0.6,0.1-0.9,0.2c-0.8,0.5-1.1,1.6-0.7,2.4L359.9,15.3z"/>                  
    <path fill="#DC5541" d="M372,70.5c7.8,0,15.5-0.2,22.9-0.5c1,0,1.7-0.9,1.7-1.9c0-1-0.9-1.7-1.9-1.7c-14.7,0.6-30.6,0.6-45.4,0 c-1,0-1.8,0.7-1.9,1.7c0,1,0.7,1.8,1.7,1.9C356.7,70.3,364.3,70.5,372,70.5z"/>

</svg>